<?xml version="1.0" encoding="UTF-8"?>
<svg version="1.1" xmlns="http://www.w3.org/2000/svg" width="480" height="480">
<path d="M0 0 C2.70002105 -0.00542593 5.39999816 -0.01240776 8.1000061 -0.02124023 C14.64857742 -0.03894819 21.19696448 -0.03522019 27.74554276 -0.02358967 C33.07169995 -0.014525 38.39780581 -0.0133444 43.72396851 -0.01768494 C44.48445344 -0.01829787 45.24493838 -0.0189108 46.02846831 -0.01954231 C47.57378588 -0.02082132 49.11910343 -0.02211817 50.66442096 -0.02343267 C65.12621523 -0.03481584 79.58790778 -0.02176041 94.04968536 -0.00023121 C106.43584374 0.01763773 118.82185213 0.01453299 131.20800781 -0.00390625 C145.62103014 -0.02535309 160.0339635 -0.03371741 174.44699955 -0.0214572 C175.98636435 -0.02018311 177.52572917 -0.01892563 179.06509399 -0.01768494 C180.2009395 -0.01675928 180.2009395 -0.01675928 181.35973138 -0.01581493 C186.67428087 -0.01237345 191.98877352 -0.01816433 197.30331421 -0.02760315 C203.7874637 -0.03886703 210.27141972 -0.03569154 216.75554729 -0.01448017 C220.05855863 -0.00402822 223.36118494 -0.00193064 226.66420364 -0.01307678 C244.07339771 -0.06639064 259.231982 -0.01573031 273.39453125 11.51757812 C283.35586002 21.4959348 288.51714117 34.1108277 288.51953125 48.16210938 C288.4841157 50.21821614 288.44213531 52.27421745 288.39453125 54.33007812 C288.05378043 88.08388103 288.84410088 132.07724494 313.734375 158.29101562 C320.63662848 164.06823219 328.80674538 167.06392502 337.39453125 169.51757812 C337.39453125 177.43757812 337.39453125 185.35757813 337.39453125 193.51757812 C333.76453125 194.50757813 330.13453125 195.49757812 326.39453125 196.51757812 C312.10457823 202.61182279 304.73884964 213.97693632 299.02734375 228.06445312 C289.12791971 254.06925592 288.00092379 282.8577071 288.51879883 310.36035156 C288.69702458 326.05876701 284.75396163 338.80496169 273.73828125 350.23632812 C264.02673157 359.21493066 252.81417497 361.8224033 240.00361633 361.78500366 C238.29225307 361.79180033 238.29225307 361.79180033 236.5463168 361.79873431 C232.726556 361.81138587 228.90693763 361.80975741 225.0871582 361.80810547 C222.34700484 361.81300432 219.60686144 361.82083929 216.86671448 361.82846069 C210.19739258 361.84505083 203.52810604 361.85056936 196.85876522 361.85168545 C191.43473535 361.85263699 186.0107171 361.85675259 180.5866909 361.8630867 C165.19432204 361.88069471 149.80198103 361.88992641 134.40960202 361.88842575 C133.58035377 361.88834584 132.75110551 361.88826593 131.89672852 361.88818359 C131.06646262 361.88810183 130.23619672 361.88802007 129.38077124 361.88793583 C115.93243332 361.88712335 102.48420751 361.90625264 89.035902 361.93446033 C75.21330278 361.96322328 61.39075818 361.97699871 47.56812829 361.97527277 C39.81343518 361.97460999 32.05885957 361.98005321 24.3041935 362.00162888 C17.70021483 362.01988577 11.0964069 362.02415129 4.49241386 362.01061003 C1.12671694 362.00410244 -2.23838705 362.00607703 -5.60409546 362.02131653 C-9.26289821 362.03680617 -12.92085051 362.02743489 -16.57963562 362.01205444 C-17.62937221 362.02234157 -18.67910879 362.0326287 -19.76065558 362.04322755 C-32.62680238 361.92428654 -43.24920841 357.42843989 -52.60546875 348.63867188 C-63.48483721 337.03244905 -66.13628812 322.39451037 -65.66796875 306.95507812 C-65.24114548 274.21978779 -66.05655283 230.58412057 -89.98828125 204.97070312 C-97.32973373 198.37403568 -105.05845555 195.42698077 -114.60546875 193.51757812 C-114.60546875 185.59757813 -114.60546875 177.67757812 -114.60546875 169.51757812 C-111.14046875 168.52757812 -111.14046875 168.52757812 -107.60546875 167.51757812 C-90.92627795 160.46242934 -82.87949664 150.28083716 -76.11450195 133.79077148 C-67.06561015 110.41616548 -65.3935568 84.45304902 -65.69335938 59.62475586 C-65.88103132 42.33053915 -64.8082638 26.53248237 -52.41015625 13.13867188 C-36.95741326 -0.74203882 -19.53968118 -0.06593725 0 0 Z " fill="#6C19FE" transform="translate(128.60546875,58.482421875)"/>
<path d="M0 0 C112.53125 0 112.53125 0 129.93359375 16.875 C139.86120485 27.46445184 142.60686559 39.22297814 142.3125 53.2890625 C142.03671766 59.09198262 140.67714249 63.84587521 138 69 C137.57589844 69.85851562 137.15179688 70.71703125 136.71484375 71.6015625 C131.41797278 81.36905159 123.38025285 88.07325961 113 92 C110.6052113 92.57303872 108.46677118 92.83912362 106 93 C106 93.66 106 94.32 106 95 C107.258125 95.0825 108.51625 95.165 109.8125 95.25 C122.78861856 96.7527117 134.84281673 103.39066671 143.2109375 113.39453125 C152.42583263 126.81447677 153.55817627 140.83830217 151.5390625 156.59765625 C148.43196145 170.4699486 140.44094757 181.66961766 128.625 189.40625 C127.75875 189.9321875 126.8925 190.458125 126 191 C125.236875 191.4640625 124.47375 191.928125 123.6875 192.40625 C91.82308824 209.15549208 18.80313291 200 0 200 C0 134 0 68 0 0 Z " fill="#F6EFFD" transform="translate(168,140)"/>
<path d="M0 0 C8.8275 -0.061875 17.655 -0.12375 26.75 -0.1875 C29.51213867 -0.21481201 32.27427734 -0.24212402 35.12011719 -0.27026367 C37.3456987 -0.27903763 39.57128508 -0.2866794 41.796875 -0.29296875 C42.92303223 -0.30831665 44.04918945 -0.32366455 45.20947266 -0.33947754 C57.25861607 -0.34339469 69.90184607 1.89341101 79.29296875 9.97265625 C85.91091719 16.80758661 88.03752263 23.5562125 88.4375 32.9375 C88.19655621 41.08768567 85.81903102 49.35474022 80.078125 55.37109375 C68.00856338 64.83163359 54.34942842 66.33891585 39.453125 66.1953125 C38.4429834 66.19329834 37.4328418 66.19128418 36.39208984 66.18920898 C32.6780126 66.17887504 28.96400093 66.15095437 25.25 66.125 C16.9175 66.08375 8.585 66.0425 0 66 C0 44.22 0 22.44 0 0 Z " fill="#6C1AFE" transform="translate(200,249)"/>
<path d="M0 0 C7.8375 -0.061875 15.675 -0.12375 23.75 -0.1875 C27.42334473 -0.22846802 27.42334473 -0.22846802 31.17089844 -0.27026367 C33.15038564 -0.27903996 35.12987833 -0.28668117 37.109375 -0.29296875 C38.10598145 -0.30831665 39.10258789 -0.32366455 40.12939453 -0.33947754 C50.5231153 -0.34327087 62.66639162 1.34447725 70.71484375 8.53125 C77.40057957 15.72372863 78.59210528 22.85183607 78.34375 32.52734375 C77.56953723 40.34865234 74.75658584 46.27414437 68.8984375 51.5390625 C55.52048541 61.83402975 38.11623302 60.3780445 22.1875 60.1875 C14.865625 60.125625 7.54375 60.06375 0 60 C0 40.2 0 20.4 0 0 Z " fill="#6C1AFE" transform="translate(200,165)"/>
</svg>
