<?xml version="1.0" encoding="UTF-8"?>
<svg version="1.1" xmlns="http://www.w3.org/2000/svg" width="256" height="256">
<path d="M0 0 C13.97620601 10.41364369 20.17660587 22.31785288 25.125 38.8125 C25.125 50.6925 25.125 62.5725 25.125 74.8125 C-4.905 74.8125 -34.935 74.8125 -65.875 74.8125 C-61.77699038 88.13103127 -58.23876827 96.45986434 -46 103.125 C-38.30498852 106.27826777 -29.05026979 106.34191948 -21.28125 103.49609375 C-18.39642851 102.04318002 -15.6446728 100.47062916 -12.875 98.8125 C-11.885 98.4825 -10.895 98.1525 -9.875 97.8125 C-9.1623585 96.50316264 -8.50183468 95.16501636 -7.875 93.8125 C-6.83919677 92.4216405 -5.75233395 91.06776198 -4.625 89.75 C-4.06296875 89.07839844 -3.5009375 88.40679687 -2.921875 87.71484375 C2.89330316 82.31027931 8.48007155 82.4263027 16 82.625 C16.97453125 82.63853516 17.9490625 82.65207031 18.953125 82.66601562 C21.34432863 82.70118038 23.73436975 82.7503933 26.125 82.8125 C19.92776942 100.90478122 11.78442114 115.9484069 -5.77734375 125.33984375 C-19.67770496 131.94821219 -36.04307289 133.41271104 -51 129.25 C-66.70910924 123.37188481 -78.73926269 113.21480009 -85.95800781 97.94873047 C-86.26061523 97.24377441 -86.56322266 96.53881836 -86.875 95.8125 C-87.2369043 94.96961426 -87.59880859 94.12672852 -87.97167969 93.25830078 C-91.58908652 83.41734645 -91.48459593 73.69157089 -91.39648438 63.31982422 C-91.37503832 60.31786324 -91.39637292 57.31829478 -91.421875 54.31640625 C-91.4496273 35.75923899 -87.864002 20.91696825 -74.6875 7 C-54.36682484 -12.23949326 -23.4526246 -15.7695735 0 0 Z M-49.875 19.8125 C-50.58140625 20.25980469 -51.2878125 20.70710938 -52.015625 21.16796875 C-59.37538774 26.25165672 -63.3355077 32.3052008 -65.875 40.8125 C-66.205 44.1125 -66.535 47.4125 -66.875 50.8125 C-44.435 50.8125 -21.995 50.8125 1.125 50.8125 C-0.71965241 38.82225934 -2.26575614 29.70261839 -11.984375 22.1796875 C-22.96872849 14.54961645 -38.13105693 12.22591278 -49.875 19.8125 Z " fill="#7C43FF" transform="translate(102.875,69.1875)"/>
<path d="M0 0 C4.33310328 -0.116965 8.6657958 -0.1875089 13 -0.25 C14.22074219 -0.28351562 15.44148438 -0.31703125 16.69921875 -0.3515625 C25.44647764 -0.44612746 31.16014088 0.30148539 37.546875 6.453125 C38.27390625 7.37609375 39.0009375 8.2990625 39.75 9.25 C40.15847168 9.76232178 40.56694336 10.27464355 40.98779297 10.80249023 C42.3452818 12.52036306 43.67491218 14.2570286 45 16 C45.49081055 16.64146973 45.98162109 17.28293945 46.48730469 17.94384766 C50.89708756 23.72310219 55.26358677 29.53452953 59.46875 35.46484375 C60.1803125 36.46644531 60.891875 37.46804687 61.625 38.5 C62.23601562 39.3765625 62.84703125 40.253125 63.4765625 41.15625 C63.97929687 41.7646875 64.48203125 42.373125 65 43 C65.66 43 66.32 43 67 43 C68.33930296 41.40938619 69.59364463 39.74718878 70.8125 38.0625 C71.61880157 36.96151381 72.42615688 35.8612988 73.234375 34.76171875 C73.67458984 34.16020996 74.11480469 33.55870117 74.56835938 32.93896484 C78.80171335 27.20545576 83.17492056 21.57590051 87.52539062 15.93115234 C88.81219294 14.24595262 90.07250993 12.54059471 91.328125 10.83203125 C92.31039062 9.52298828 92.31039062 9.52298828 93.3125 8.1875 C94.11107422 7.09501953 94.11107422 7.09501953 94.92578125 5.98046875 C101.04968452 0.13335207 107.01781479 -0.44110808 115.30078125 -0.3515625 C117.13189453 -0.30128906 117.13189453 -0.30128906 119 -0.25 C120.87751953 -0.22292969 120.87751953 -0.22292969 122.79296875 -0.1953125 C125.86278242 -0.14844512 128.93098174 -0.0828431 132 0 C131.42100952 0.77162476 131.42100952 0.77162476 130.83032227 1.55883789 C128.5185938 4.64030713 126.20748612 7.7221927 123.90234375 10.80859375 C116.21020989 21.10045476 108.38576163 31.29113768 100.55859375 41.48046875 C94.59848212 49.24633752 88.69384337 57.03550005 83 65 C86.94067165 71.08745546 91.12477726 76.87881011 95.625 82.5625 C100.15050229 88.32701401 104.62489968 94.12047403 109 100 C115.06634274 108.1443506 121.3032522 116.15256383 127.56469727 124.14746094 C128.03834717 124.75879883 128.51199707 125.37013672 129 126 C129.55550537 126.69641602 130.11101074 127.39283203 130.68334961 128.11035156 C132 130 132 130 132 132 C127.83357303 132.11703447 123.6675741 132.18753101 119.5 132.25 C117.74042969 132.30027344 117.74042969 132.30027344 115.9453125 132.3515625 C109.08938712 132.42859537 103.60089436 132.23750761 98 128 C95.34765625 125.40625 95.34765625 125.40625 93.0625 122.5 C92.64339355 121.97374023 92.22428711 121.44748047 91.79248047 120.90527344 C90.51013537 119.28338461 89.25199456 117.64539309 88 116 C87.26910156 115.04609375 86.53820312 114.0921875 85.78515625 113.109375 C83.93824461 110.66463843 82.10969044 108.20760196 80.29052734 105.7421875 C77.6902243 102.23182759 75.06083981 98.74315563 72.4375 95.25 C71.39443117 93.85945007 70.3514539 92.46883144 69.30859375 91.078125 C68.54675781 90.06234375 67.78492188 89.0465625 67 88 C62.77137154 89.40954282 61.13912981 92.51425145 58.625 96 C57.55421868 97.45634219 56.48257345 98.91204951 55.41015625 100.3671875 C54.85344238 101.12612305 54.29672852 101.88505859 53.72314453 102.66699219 C50.87842099 106.51853345 47.97223873 110.32247195 45.0625 114.125 C44.53156738 114.82238281 44.00063477 115.51976562 43.45361328 116.23828125 C42.4444707 117.55869052 41.42907931 118.87435345 40.40673828 120.18457031 C39.51512544 121.33521819 38.64119676 122.49997411 37.79248047 123.68261719 C34.55509762 127.99283012 31.14973365 130.53626201 26 132 C21.4834839 132.44993212 17.03281586 132.37950902 12.5 132.25 C11.29601562 132.23195312 10.09203125 132.21390625 8.8515625 132.1953125 C5.90020395 132.14846554 2.95052964 132.08288005 0 132 C1.63161558 128.62305963 3.53784784 125.80457492 5.8125 122.8125 C6.20211914 122.29840576 6.59173828 121.78431152 6.99316406 121.25463867 C8.32495579 119.50015008 9.66212311 117.74985215 11 116 C12.00911954 114.67708712 13.01823393 113.3541703 14.02734375 112.03125 C17.89815993 106.96164513 21.77738679 101.89849177 25.65869141 96.83691406 C33.50364096 86.60558824 41.28435816 76.32922862 49 66 C46.24780196 60.90453901 43.18631601 56.51634631 39.5 52.0625 C35.25884645 46.85188411 31.13072669 41.58124352 27.125 36.1875 C21.62729912 28.79520401 15.99463649 21.51427774 10.32421875 14.25390625 C9.51863525 13.22160889 9.51863525 13.22160889 8.69677734 12.16845703 C7.47676664 10.6093009 6.25263684 9.05336465 5.02587891 7.49951172 C4.38440918 6.68369629 3.74293945 5.86788086 3.08203125 5.02734375 C2.19801636 3.90767212 2.19801636 3.90767212 1.29614258 2.76538086 C0 1 0 1 0 0 Z " fill="#7148FF" transform="translate(112,64)"/>
<path d="M0 0 C12.84418376 8.6684259 19.011726 21.83957785 22.125 36.6875 C22.125 44.2775 22.125 51.8675 22.125 59.6875 C-8.235 59.6875 -38.595 59.6875 -69.875 59.6875 C-67.94606624 75.11897006 -65.94959605 88.74853261 -53.33203125 98.69140625 C-43.00328927 105.6694985 -33.30916417 107.90058919 -20.875 106.6875 C-8.59399139 104.17751284 0.09049212 97.89076308 7.3359375 87.82421875 C9.18377024 85.61730934 10.4468336 84.67164549 13.125 83.6875 C15.875 83.5625 15.875 83.5625 18.125 83.6875 C15.24097365 94.93520277 6.83450259 103.5449575 -2.8359375 109.515625 C-16.62111536 116.81574489 -30.13760077 117.25699162 -45.00390625 113.00390625 C-57.26289648 109.09745864 -66.29477619 100.00597964 -72.25 88.8125 C-77.42416762 78.43390647 -78.34467715 67.73476643 -78.21118164 56.34228516 C-78.187528 54.19004811 -78.19065436 52.0390538 -78.19726562 49.88671875 C-78.16314524 32.00058348 -75.24428523 18.38898186 -62.53125 5.1015625 C-58.65154785 1.5755979 -54.53224827 -0.94742783 -49.875 -3.3125 C-48.823125 -3.89 -47.77125 -4.4675 -46.6875 -5.0625 C-30.65511202 -12.18800577 -14.5782747 -8.62432533 0 0 Z M-44.875 12.6875 C-45.58140625 13.13480469 -46.2878125 13.58210938 -47.015625 14.04296875 C-54.37538774 19.12665672 -58.3355077 25.1802008 -60.875 33.6875 C-61.205 36.9875 -61.535 40.2875 -61.875 43.6875 C-39.435 43.6875 -16.995 43.6875 6.125 43.6875 C4.28034759 31.69725934 2.73424386 22.57761839 -6.984375 15.0546875 C-17.96872849 7.42461645 -33.13105693 5.10091278 -44.875 12.6875 Z " fill="#A8B7FF" transform="translate(97.875,76.3125)"/>
<path d="M0 0 C1.35479361 0.00614419 2.70938844 0.05723147 4.0625 0.125 C5.19365234 0.15980469 5.19365234 0.15980469 6.34765625 0.1953125 C13.96813779 2.50727008 18.62035177 10.10189555 23.0625 16.25 C24.36963119 18.02711835 25.67826142 19.80313496 26.98828125 21.578125 C27.97948975 22.92487305 27.97948975 22.92487305 28.99072266 24.29882812 C32.17814341 28.58383702 35.45922552 32.79413224 38.75 37 C39.89063476 38.4583257 41.03126046 39.91665849 42.171875 41.375 C42.8848877 42.28378906 42.8848877 42.28378906 43.61230469 43.2109375 C45.09672186 45.12469701 46.55162838 47.05886136 48 49 C51.20565993 47.93144669 51.65570539 47.49726475 53.57421875 44.921875 C54.06921875 44.26558105 54.56421875 43.60928711 55.07421875 42.93310547 C55.60660156 42.21268066 56.13898438 41.49225586 56.6875 40.75 C57.84742198 39.20555319 59.00758996 37.66129112 60.16796875 36.1171875 C60.78462402 35.29186523 61.4012793 34.46654297 62.03662109 33.61621094 C65.49236148 29.01142184 69.00134503 24.44721153 72.5 19.875 C73.82420644 18.1442152 75.14718195 16.41248772 76.46875 14.6796875 C77.0771875 13.88280518 77.685625 13.08592285 78.3125 12.26489258 C79.84165847 10.21251943 81.28467298 8.12305016 82.71875 6.00390625 C84.83710915 3.21449155 85.74373374 2.0669531 89 1.0625 C89.639375 0.84722656 90.27875 0.63195312 90.9375 0.41015625 C93.32788236 -0.06520388 95.56799415 -0.02629331 98 0 C94.01103468 5.3372232 89.98968991 10.64815375 85.9375 15.9375 C85.37949707 16.66694824 84.82149414 17.39639648 84.24658203 18.14794922 C81.38599131 21.88699537 78.52180582 25.62322639 75.65234375 29.35546875 C68.64320022 38.48148165 61.76250323 47.68969997 55 57 C58.87171492 62.97171641 62.95894427 68.67111584 67.375 74.25 C73.45655664 81.99848189 79.44997647 89.80977116 85.40576172 97.65527344 C86.03369629 98.48188477 86.66163086 99.30849609 87.30859375 100.16015625 C87.91558105 100.9608252 88.52256836 101.76149414 89.14794922 102.58642578 C91.63111275 105.82245988 94.17717425 109.00772087 96.73461914 112.18530273 C98 114 98 114 98 116 C94.3912314 116.52627875 92.17810617 116.79333546 89.09008789 114.71386719 C84.31168844 110.43174426 80.28724373 105.93805087 76.4375 100.8125 C75.85178223 100.04655518 75.26606445 99.28061035 74.66259766 98.49145508 C72.76443601 96.00215741 70.88053219 93.5026382 69 91 C68.3282373 90.10764648 67.65647461 89.21529297 66.96435547 88.29589844 C63.13361943 83.20336893 59.31727253 78.10038616 55.51074219 72.98974609 C54.23716808 71.31236584 52.90946808 69.6762836 51.5703125 68.05078125 C50 66 50 66 50 64 C49.34 64 48.68 64 48 64 C47.59382446 64.86455811 47.59382446 64.86455811 47.17944336 65.74658203 C45.98780305 68.02330322 44.65359691 69.98794395 43.12890625 72.0546875 C42.55994629 72.82756104 41.99098633 73.60043457 41.40478516 74.39672852 C40.79683105 75.21455811 40.18887695 76.0323877 39.5625 76.875 C38.93649902 77.72054443 38.31049805 78.56608887 37.66552734 79.43725586 C32.24274894 86.73269305 26.67042874 93.89628754 21 101 C20.23558594 101.97066406 19.47117188 102.94132812 18.68359375 103.94140625 C17.63365234 105.26978516 17.63365234 105.26978516 16.5625 106.625 C15.96566406 107.38039063 15.36882812 108.13578125 14.75390625 108.9140625 C9.8133327 114.78993394 9.8133327 114.78993394 6.640625 115.609375 C5.85171875 115.65578125 5.0628125 115.7021875 4.25 115.75 C3.45078125 115.80671875 2.6515625 115.8634375 1.828125 115.921875 C1.22484375 115.94765625 0.6215625 115.9734375 0 116 C1.27666818 113.30477067 2.67065529 110.94347394 4.46875 108.56640625 C5.19408936 107.60311401 5.19408936 107.60311401 5.93408203 106.62036133 C6.45083496 105.94126709 6.96758789 105.26217285 7.5 104.5625 C8.03608887 103.85311279 8.57217773 103.14372559 9.12451172 102.4128418 C14.0447878 95.91245337 19.01425733 89.45025456 24 83 C30.39908313 74.71474052 36.74047314 66.3913947 43 58 C40.24780479 52.90454424 37.1863726 48.51631383 33.5 44.0625 C28.64536651 38.09874987 23.96754385 32.0303066 19.37670898 25.86181641 C16.1453607 21.52177128 12.87427581 17.21645921 9.5625 12.9375 C6.278668 8.68596871 3.07366053 4.4055801 0 0 Z " fill="#A9B5FF" transform="translate(129,72)"/>
<path d="M0 0 C1.05888428 0.00845947 1.05888428 0.00845947 2.13916016 0.01708984 C13.67712286 0.28369571 23.30334524 4.68052392 31.9375 12.3125 C42.76148431 23.77923872 43.25 37.08316849 43.25 52.3125 C15.53 52.3125 -12.19 52.3125 -40.75 52.3125 C-40.75 35.26565506 -40.02279091 24.06713397 -28.5625 11.5625 C-20.75718663 4.22550543 -10.66904834 -0.08931277 0 0 Z M-15.75 13.3125 C-16.45640625 13.75980469 -17.1628125 14.20710938 -17.890625 14.66796875 C-25.25038774 19.75165672 -29.2105077 25.8052008 -31.75 34.3125 C-32.08 37.6125 -32.41 40.9125 -32.75 44.3125 C-10.31 44.3125 12.13 44.3125 35.25 44.3125 C33.40534759 32.32225934 31.85924386 23.20261839 22.140625 15.6796875 C11.15627151 8.04961645 -4.00605693 5.72591278 -15.75 13.3125 Z " fill="#5355FF" transform="translate(68.75,75.6875)"/>
</svg>
