<?xml version="1.0" standalone="no"?>
<!DOCTYPE svg PUBLIC "-//W3C//DTD SVG 20010904//EN"
 "http://www.w3.org/TR/2001/REC-SVG-20010904/DTD/svg10.dtd">
<svg version="1.0" xmlns="http://www.w3.org/2000/svg"
 width="640.000000pt" height="640.000000pt" viewBox="0 0 640.000000 640.000000"
 preserveAspectRatio="xMidYMid meet">

<g transform="translate(0.000000,640.000000) scale(0.100000,-0.100000)"
fill="#000000" stroke="none">
<path d="M3136 5109 c-74 -75 -147 -161 -185 -218 -138 -208 -228 -454 -257
-703 -5 -51 -4 -58 12 -64 238 -74 415 -226 518 -445 58 -122 71 -185 71 -344
0 -162 -14 -225 -75 -353 l-40 -83 36 -32 c78 -69 214 -159 323 -213 l114 -57
45 22 c125 61 263 174 358 295 82 103 166 272 201 401 23 87 26 120 27 260 0
137 -3 173 -23 250 -44 170 -125 331 -249 494 -82 108 -364 453 -585 714
l-169 201 -122 -125z"/>
<path d="M2037 1822 c-9 -10 -17 -33 -17 -50 0 -68 88 -81 119 -18 12 25 11
31 -6 55 -25 33 -72 40 -96 13z"/>
<path d="M1570 1505 l0 -325 50 0 50 0 0 135 0 135 135 0 135 0 0 45 0 45
-135 0 -135 0 0 100 0 100 150 0 150 0 0 45 0 45 -200 0 -200 0 0 -325z"/>
<path d="M3020 1505 l0 -325 45 0 c44 0 45 1 45 31 l0 31 35 -30 c32 -29 88
-52 126 -52 43 0 111 34 147 75 96 109 79 289 -36 369 -75 53 -180 47 -247
-15 l-21 -18 4 129 4 130 -51 0 -51 0 0 -325z m277 40 c37 -10 81 -70 88 -118
14 -89 -53 -177 -133 -177 -127 0 -189 173 -93 264 29 28 75 46 101 41 8 -2
25 -6 37 -10z"/>
<path d="M2392 1624 c-18 -9 -42 -28 -52 -42 l-20 -25 0 37 0 36 -45 0 -45 0
0 -225 0 -225 45 0 45 0 0 127 c0 107 3 133 20 169 26 53 75 79 132 70 l39 -6
-3 47 -3 48 -40 3 c-22 1 -55 -5 -73 -14z"/>
<path d="M2629 1613 c-72 -37 -109 -96 -116 -187 -9 -107 35 -194 121 -238 54
-28 156 -30 206 -4 41 21 100 75 100 91 0 6 -17 19 -37 29 -35 17 -38 17 -50
0 -65 -89 -212 -62 -243 45 l-9 31 175 0 c143 0 176 3 180 14 11 28 -17 125
-47 166 -60 82 -178 104 -280 53z m171 -68 c25 -13 60 -60 60 -80 0 -3 -56 -5
-125 -5 -85 0 -125 4 -125 11 0 6 17 29 39 50 32 33 45 39 80 39 23 0 55 -7
71 -15z"/>
<path d="M3620 1619 c-46 -21 -80 -46 -80 -60 0 -4 16 -17 35 -29 l35 -22 31
26 c44 38 117 37 158 -1 17 -16 33 -41 37 -57 7 -29 6 -29 -27 -22 -111 23
-166 16 -230 -27 -42 -28 -65 -87 -55 -142 21 -111 183 -161 271 -84 40 35 45
36 45 4 0 -23 4 -25 45 -25 l45 0 0 158 c0 167 -11 214 -56 254 -57 50 -175
63 -254 27z m193 -241 c18 -7 26 -16 23 -25 -4 -8 -6 -19 -6 -23 0 -23 -64
-80 -96 -86 -84 -16 -144 56 -96 116 30 38 104 45 175 18z"/>
<path d="M4070 1618 c-83 -42 -103 -132 -43 -192 15 -15 50 -33 82 -42 111
-30 146 -47 149 -76 4 -35 -30 -58 -85 -58 -35 0 -50 6 -82 36 l-40 35 -33
-17 c-18 -9 -35 -18 -37 -20 -2 -2 6 -18 17 -36 67 -108 269 -112 340 -8 61
90 -1 176 -153 210 -61 14 -95 35 -95 59 0 53 96 70 149 25 l30 -25 42 18 41
18 -23 29 c-51 65 -175 86 -259 44z"/>
<path d="M4519 1612 c-159 -83 -159 -341 0 -421 91 -46 191 -35 266 31 25 22
45 45 45 52 0 7 -16 20 -37 30 -36 17 -36 17 -57 -7 -69 -82 -206 -52 -236 52
l-9 31 175 0 174 0 0 53 c-1 125 -85 207 -214 207 -39 0 -68 -7 -107 -28z
m171 -67 c25 -13 60 -60 60 -80 0 -3 -56 -5 -125 -5 -85 0 -125 4 -125 11 0 6
17 29 39 50 32 33 45 39 80 39 23 0 55 -7 71 -15z"/>
<path d="M2030 1405 l0 -225 50 0 50 0 0 225 0 225 -50 0 -50 0 0 -225z"/>
</g>
</svg>
