<?xml version="1.0" encoding="UTF-8"?>
<!DOCTYPE svg PUBLIC "-//W3C//DTD SVG 1.1//EN" "http://www.w3.org/Graphics/SVG/1.1/DTD/svg11.dtd">
<svg xmlns="http://www.w3.org/2000/svg" version="1.1" width="500px" height="500px" style="shape-rendering:geometricPrecision; text-rendering:geometricPrecision; image-rendering:optimizeQuality; fill-rule:evenodd; clip-rule:evenodd" xmlns:xlink="http://www.w3.org/1999/xlink">
<g><path style="opacity:1" fill="#dc2c00" d="M 259.5,95.5 C 259.5,97.8333 259.5,100.167 259.5,102.5C 262.487,102.422 263.153,103.589 261.5,106C 261.725,107.621 262.558,108.788 264,109.5C 265.44,108.852 266.94,108.519 268.5,108.5C 268.5,109.5 268.5,110.5 268.5,111.5C 269.5,111.5 270.5,111.5 271.5,111.5C 271.335,114.518 271.502,117.518 272,120.5C 274.652,121.59 276.152,123.59 276.5,126.5C 275.134,125.798 273.467,125.798 271.5,126.5C 273.813,127.971 274.147,129.804 272.5,132C 272.862,133.225 273.362,134.391 274,135.5C 276.5,136.667 278.333,138.5 279.5,141C 280.872,141.402 282.205,141.902 283.5,142.5C 284.736,141.754 286.07,141.421 287.5,141.5C 288.082,146.376 289.082,146.043 290.5,140.5C 288.441,136.474 285.108,134.474 280.5,134.5C 278.991,131.384 279.491,128.718 282,126.5C 282.522,130.692 284.855,133.359 289,134.5C 290.975,138.944 293.475,142.944 296.5,146.5C 297.357,147.425 298.357,148.092 299.5,148.5C 302.519,150.857 305.519,153.191 308.5,155.5C 313.988,160.656 318.321,166.656 321.5,173.5C 323.588,178.691 325.421,184.024 327,189.5C 329.266,192.367 331.099,195.367 332.5,198.5C 332.5,198.833 332.5,199.167 332.5,199.5C 332.41,202.152 333.076,204.485 334.5,206.5C 334.5,206.833 334.5,207.167 334.5,207.5C 334.83,218.595 334.163,229.595 332.5,240.5C 332.5,240.833 332.5,241.167 332.5,241.5C 331.057,242.335 330.057,243.668 329.5,245.5C 328.395,249.55 327.395,253.55 326.5,257.5C 325.417,257.539 324.417,257.873 323.5,258.5C 321.854,262.218 319.688,265.551 317,268.5C 316.495,270.518 315.995,272.518 315.5,274.5C 313.306,277.605 310.64,280.272 307.5,282.5C 305.473,282.338 303.473,282.505 301.5,283C 302.167,283.333 302.833,283.667 303.5,284C 301.335,285.339 299.335,286.839 297.5,288.5C 296.353,288.182 295.519,287.516 295,286.5C 294.25,287.126 293.416,287.626 292.5,288C 294.107,289.049 294.773,290.549 294.5,292.5C 291.896,294.782 288.896,296.116 285.5,296.5C 271.196,291.682 258.862,283.848 248.5,273C 266.885,231.844 256.551,200.511 217.5,179C 214.883,178.178 212.216,177.678 209.5,177.5C 209.5,177.167 209.5,176.833 209.5,176.5C 210.79,168.629 212.123,160.629 213.5,152.5C 213.5,151.5 213.5,150.5 213.5,149.5C 217.402,145.349 219.402,140.349 219.5,134.5C 220.095,131.683 221.428,129.35 223.5,127.5C 225.804,124.342 227.97,121.009 230,117.5C 234.63,114.714 237.464,110.714 238.5,105.5C 238.369,104.761 238.536,104.094 239,103.5C 243.388,99.2349 247.888,95.0682 252.5,91C 255.668,90.9683 258.001,92.4683 259.5,95.5 Z"/></g>
<g><path style="opacity:0.227" fill="#f3a08f" d="M 265.5,102.5 C 266.906,102.973 267.573,103.973 267.5,105.5C 266.094,105.027 265.427,104.027 265.5,102.5 Z"/></g>
<g><path style="opacity:0.718" fill="#da6d4e" d="M 276.5,116.5 C 279.243,118.239 281.243,120.573 282.5,123.5C 279.757,121.761 277.757,119.427 276.5,116.5 Z"/></g>
<g><path style="opacity:1" fill="#d93309" d="M 259.5,95.5 C 261.5,97.8333 263.5,100.167 265.5,102.5C 265.427,104.027 266.094,105.027 267.5,105.5C 270.871,108.871 273.871,112.537 276.5,116.5C 277.757,119.427 279.757,121.761 282.5,123.5C 284.194,124.527 285.527,125.861 286.5,127.5C 286.427,129.027 287.094,130.027 288.5,130.5C 292.922,134.587 296.589,139.254 299.5,144.5C 299.5,145.833 299.5,147.167 299.5,148.5C 298.357,148.092 297.357,147.425 296.5,146.5C 293.475,142.944 290.975,138.944 289,134.5C 284.855,133.359 282.522,130.692 282,126.5C 279.491,128.718 278.991,131.384 280.5,134.5C 285.108,134.474 288.441,136.474 290.5,140.5C 289.082,146.043 288.082,146.376 287.5,141.5C 286.07,141.421 284.736,141.754 283.5,142.5C 282.205,141.902 280.872,141.402 279.5,141C 278.333,138.5 276.5,136.667 274,135.5C 273.362,134.391 272.862,133.225 272.5,132C 274.147,129.804 273.813,127.971 271.5,126.5C 273.467,125.798 275.134,125.798 276.5,126.5C 276.152,123.59 274.652,121.59 272,120.5C 271.502,117.518 271.335,114.518 271.5,111.5C 270.5,111.5 269.5,111.5 268.5,111.5C 268.5,110.5 268.5,109.5 268.5,108.5C 266.94,108.519 265.44,108.852 264,109.5C 262.558,108.788 261.725,107.621 261.5,106C 263.153,103.589 262.487,102.422 259.5,102.5C 259.5,100.167 259.5,97.8333 259.5,95.5 Z"/></g>
<g><path style="opacity:0.855" fill="#d25a39" d="M 238.5,105.5 C 237.464,110.714 234.63,114.714 230,117.5C 227.97,121.009 225.804,124.342 223.5,127.5C 226.884,119.107 231.884,111.774 238.5,105.5 Z"/></g>
<g><path style="opacity:0.188" fill="#f1ae99" d="M 286.5,127.5 C 287.906,127.973 288.573,128.973 288.5,130.5C 287.094,130.027 286.427,129.027 286.5,127.5 Z"/></g>
<g><path style="opacity:0.773" fill="#d2593b" d="M 219.5,134.5 C 219.402,140.349 217.402,145.349 213.5,149.5C 215.129,144.265 217.129,139.265 219.5,134.5 Z"/></g>
<g><path style="opacity:1" fill="#cf5533" d="M 299.5,144.5 C 303.25,147.58 306.25,151.247 308.5,155.5C 305.519,153.191 302.519,150.857 299.5,148.5C 299.5,147.167 299.5,145.833 299.5,144.5 Z"/></g>
<g><path style="opacity:0.753" fill="#cb532e" d="M 213.5,152.5 C 212.123,160.629 210.79,168.629 209.5,176.5C 209.5,176.167 209.5,175.833 209.5,175.5C 208.807,167.352 210.14,159.685 213.5,152.5 Z"/></g>
<g><path style="opacity:1" fill="#f4c435" d="M 208.5,175.5 C 198.347,176.494 188.014,176.828 177.5,176.5C 178.263,175.732 179.263,175.232 180.5,175C 189.881,174.22 199.214,174.387 208.5,175.5 Z"/></g>
<g><path style="opacity:1" fill="#fdc303" d="M 208.5,175.5 C 208.833,175.5 209.167,175.5 209.5,175.5C 209.5,175.833 209.5,176.167 209.5,176.5C 209.5,176.833 209.5,177.167 209.5,177.5C 207.893,203.675 214.059,227.675 228,249.5C 233.351,258.068 239.518,265.902 246.5,273C 240.569,283.432 232.236,291.265 221.5,296.5C 219.847,296.66 218.514,297.326 217.5,298.5C 207.225,295.213 198.559,289.546 191.5,281.5C 190.206,279.704 189.206,277.704 188.5,275.5C 184.934,273.943 182.934,271.277 182.5,267.5C 181.5,267.5 180.5,267.5 179.5,267.5C 178.704,264.444 177.704,261.444 176.5,258.5C 176.608,257.558 176.941,256.725 177.5,256C 176.167,255.667 174.833,255.333 173.5,255C 173.026,253.271 172.026,252.105 170.5,251.5C 169.89,250.609 169.557,249.609 169.5,248.5C 168.29,241.2 167.123,233.867 166,226.5C 165.5,219.842 165.334,213.175 165.5,206.5C 165.781,202.812 166.281,199.145 167,195.5C 169.357,189.036 171.857,182.702 174.5,176.5C 175.5,176.5 176.5,176.5 177.5,176.5C 188.014,176.828 198.347,176.494 208.5,175.5 Z"/></g>
<g><path style="opacity:1" fill="#fd9001" d="M 209.5,177.5 C 212.216,177.678 214.883,178.178 217.5,179C 256.551,200.511 266.885,231.844 248.5,273C 258.862,283.848 271.196,291.682 285.5,296.5C 283.824,298.834 281.491,299.834 278.5,299.5C 274.456,298.958 270.789,299.791 267.5,302C 256.839,302.5 246.172,302.667 235.5,302.5C 230.183,302.117 225.183,300.617 220.5,298C 221.056,297.617 221.389,297.117 221.5,296.5C 232.236,291.265 240.569,283.432 246.5,273C 239.518,265.902 233.351,258.068 228,249.5C 214.059,227.675 207.893,203.675 209.5,177.5 Z"/></g>
<g><path style="opacity:1" fill="#d45231" d="M 321.5,173.5 C 326.896,181.004 330.563,189.338 332.5,198.5C 331.099,195.367 329.266,192.367 327,189.5C 325.421,184.024 323.588,178.691 321.5,173.5 Z"/></g>
<g><path style="opacity:0.286" fill="#cd6a4f" d="M 332.5,199.5 C 333.924,201.515 334.59,203.848 334.5,206.5C 333.076,204.485 332.41,202.152 332.5,199.5 Z"/></g>
<g><path style="opacity:0.145" fill="#cb5233" d="M 334.5,207.5 C 335.657,215.656 335.823,223.99 335,232.5C 334.454,235.379 333.621,238.046 332.5,240.5C 334.163,229.595 334.83,218.595 334.5,207.5 Z"/></g>
<g><path style="opacity:0.847" fill="#f6d053" d="M 165.5,206.5 C 165.334,213.175 165.5,219.842 166,226.5C 167.123,233.867 168.29,241.2 169.5,248.5C 163.928,234.846 162.594,220.846 165.5,206.5 Z"/></g>
<g><path style="opacity:0.996" fill="#d35839" d="M 332.5,241.5 C 331.585,247.314 329.585,252.647 326.5,257.5C 327.395,253.55 328.395,249.55 329.5,245.5C 330.057,243.668 331.057,242.335 332.5,241.5 Z"/></g>
<g><path style="opacity:0.976" fill="#f6ca46" d="M 170.5,251.5 C 172.026,252.105 173.026,253.271 173.5,255C 174.833,255.333 176.167,255.667 177.5,256C 176.941,256.725 176.608,257.558 176.5,258.5C 177.704,261.444 178.704,264.444 179.5,267.5C 175.471,262.779 172.471,257.446 170.5,251.5 Z"/></g>
<g><path style="opacity:0.91" fill="#d35531" d="M 326.5,257.5 C 323.59,263.652 319.923,269.319 315.5,274.5C 315.995,272.518 316.495,270.518 317,268.5C 319.688,265.551 321.854,262.218 323.5,258.5C 324.417,257.873 325.417,257.539 326.5,257.5 Z"/></g>
<g><path style="opacity:1" fill="#f9d356" d="M 179.5,267.5 C 180.5,267.5 181.5,267.5 182.5,267.5C 182.934,271.277 184.934,273.943 188.5,275.5C 189.206,277.704 190.206,279.704 191.5,281.5C 189.484,280.544 187.651,279.21 186,277.5C 183.19,274.536 181.024,271.202 179.5,267.5 Z"/></g>
<g><path style="opacity:1" fill="#d95a36" d="M 307.5,282.5 C 303.742,286.592 299.409,289.926 294.5,292.5C 294.773,290.549 294.107,289.049 292.5,288C 293.416,287.626 294.25,287.126 295,286.5C 295.519,287.516 296.353,288.182 297.5,288.5C 299.335,286.839 301.335,285.339 303.5,284C 302.833,283.667 302.167,283.333 301.5,283C 303.473,282.505 305.473,282.338 307.5,282.5 Z"/></g>
<g><path style="opacity:0.737" fill="#f2aa3d" d="M 221.5,296.5 C 221.389,297.117 221.056,297.617 220.5,298C 225.183,300.617 230.183,302.117 235.5,302.5C 235.5,302.833 235.5,303.167 235.5,303.5C 229.083,303.023 223.083,301.357 217.5,298.5C 218.514,297.326 219.847,296.66 221.5,296.5 Z"/></g>
<g><path style="opacity:0.999" fill="#f49b2e" d="M 278.5,299.5 C 276.142,301.129 273.476,302.295 270.5,303C 258.812,305.605 247.145,305.772 235.5,303.5C 235.5,303.167 235.5,302.833 235.5,302.5C 246.172,302.667 256.839,302.5 267.5,302C 270.789,299.791 274.456,298.958 278.5,299.5 Z"/></g>
<g><path style="opacity:0.978" fill="#5e5e5e" d="M 131.5,364.5 C 130.514,368.97 130.181,373.637 130.5,378.5C 137.5,378.5 144.5,378.5 151.5,378.5C 151.5,381.5 151.5,384.5 151.5,387.5C 144.833,387.5 138.167,387.5 131.5,387.5C 131.5,394.5 131.5,401.5 131.5,408.5C 130.5,408.5 129.5,408.5 128.5,408.5C 126.735,407.539 124.735,407.205 122.5,407.5C 122.83,390.991 122.496,374.658 121.5,358.5C 121.5,357.5 121.5,356.5 121.5,355.5C 132.167,355.5 142.833,355.5 153.5,355.5C 153.5,358.5 153.5,361.5 153.5,364.5C 146.167,364.5 138.833,364.5 131.5,364.5 Z"/></g>
<g><path style="opacity:0.924" fill="#636363" d="M 159.5,354.5 C 166.477,354.271 168.977,357.604 167,364.5C 163.667,368.5 160.333,368.5 157,364.5C 155.98,360.58 156.813,357.246 159.5,354.5 Z"/></g>
<g><path style="opacity:0.325" fill="#bebebe" d="M 121.5,358.5 C 122.496,374.658 122.83,390.991 122.5,407.5C 124.735,407.205 126.735,407.539 128.5,408.5C 126.167,408.5 123.833,408.5 121.5,408.5C 121.5,391.833 121.5,375.167 121.5,358.5 Z"/></g>
<g><path style="opacity:0.161" fill="#757575" d="M 243.5,356.5 C 240.833,356.5 238.167,356.5 235.5,356.5C 235.5,373.5 235.5,390.5 235.5,407.5C 237.415,407.216 239.081,407.549 240.5,408.5C 238.5,408.5 236.5,408.5 234.5,408.5C 234.5,390.833 234.5,373.167 234.5,355.5C 237.713,355.19 240.713,355.523 243.5,356.5 Z"/></g>
<g><path style="opacity:0.939" fill="#606060" d="M 318.5,370.5 C 323.179,370.334 327.845,370.501 332.5,371C 335.865,372.833 338.531,375.333 340.5,378.5C 336.612,383.316 332.612,383.482 328.5,379C 325.095,377.898 322.428,378.732 320.5,381.5C 320.833,382.167 321.167,382.833 321.5,383.5C 327.155,384.413 332.488,386.247 337.5,389C 343.608,398.014 341.608,404.68 331.5,409C 325.606,410.037 319.939,409.371 314.5,407C 310.744,404.675 309.41,401.508 310.5,397.5C 312.059,396.553 313.726,395.887 315.5,395.5C 317.944,396.767 320.277,398.267 322.5,400C 324.833,400.667 327.167,400.667 329.5,400C 330.428,399.612 331.095,398.945 331.5,398C 330.48,395.974 328.813,394.641 326.5,394C 320.121,393.919 314.955,391.419 311,386.5C 308.882,379.066 311.382,373.733 318.5,370.5 Z"/></g>
<g><path style="opacity:0.971" fill="#626262" d="M 186.5,370.5 C 189.833,370.5 193.167,370.5 196.5,370.5C 196.336,373.187 196.503,375.854 197,378.5C 203.884,370.456 212.384,368.289 222.5,372C 229.256,377.076 232.256,383.91 231.5,392.5C 222.5,392.5 213.5,392.5 204.5,392.5C 206.065,399.333 210.399,401.833 217.5,400C 219.769,398.596 221.936,397.096 224,395.5C 228.142,395.64 230.142,397.64 230,401.5C 222.255,409.919 213.088,411.752 202.5,407C 194.933,399.704 192.599,390.87 195.5,380.5C 190.314,378.507 186.147,379.84 183,384.5C 182.5,392.493 182.334,400.493 182.5,408.5C 179.167,408.5 175.833,408.5 172.5,408.5C 172.5,396.167 172.5,383.833 172.5,371.5C 175.5,371.5 178.5,371.5 181.5,371.5C 181.351,372.552 181.517,373.552 182,374.5C 183.397,372.93 184.897,371.596 186.5,370.5 Z M 210.5,378.5 C 215.406,377.917 219.073,379.75 221.5,384C 216.136,384.829 210.802,384.663 205.5,383.5C 206.882,381.451 208.548,379.785 210.5,378.5 Z"/></g>
<g><path style="opacity:0.926" fill="#585858" d="M 166.5,371.5 C 166.5,383.5 166.5,395.5 166.5,407.5C 163.833,407.5 161.167,407.5 158.5,407.5C 158.828,395.988 158.495,384.654 157.5,373.5C 159.988,371.612 162.988,370.945 166.5,371.5 Z"/></g>
<g><path style="opacity:0.046" fill="#e2e2e2" d="M 131.5,364.5 C 131.5,368.833 131.5,373.167 131.5,377.5C 138.354,377.176 145.021,377.509 151.5,378.5C 144.5,378.5 137.5,378.5 130.5,378.5C 130.181,373.637 130.514,368.97 131.5,364.5 Z"/></g>
<g><path style="opacity:0.97" fill="#5e5e5e" d="M 243.5,356.5 C 243.334,362.509 243.501,368.509 244,374.5C 245.214,372.951 246.714,371.785 248.5,371C 263.336,368.747 271.336,375.08 272.5,390C 271.454,404.381 263.788,410.714 249.5,409C 247.413,408.208 245.579,407.041 244,405.5C 243.517,406.448 243.351,407.448 243.5,408.5C 242.5,408.5 241.5,408.5 240.5,408.5C 239.081,407.549 237.415,407.216 235.5,407.5C 235.5,390.5 235.5,373.5 235.5,356.5C 238.167,356.5 240.833,356.5 243.5,356.5 Z M 251.5,378.5 C 258.219,379.384 262.219,383.217 263.5,390C 261.587,399.857 256.087,402.691 247,398.5C 241.333,390.156 242.833,383.489 251.5,378.5 Z"/></g>
<g><path style="opacity:0.918" fill="#616161" d="M 378.5,389.5 C 377.26,390.659 375.926,391.659 374.5,392.5C 367.167,392.5 359.833,392.5 352.5,392.5C 353.682,399.267 357.682,401.767 364.5,400C 367.239,399.088 369.572,397.588 371.5,395.5C 380.006,397.516 380.672,401.016 373.5,406C 355.784,413.976 345.118,408.476 341.5,389.5C 344.53,372.976 354.197,367.143 370.5,372C 377.091,376.016 379.757,381.849 378.5,389.5 Z M 357.5,378.5 C 362.882,377.394 366.882,379.227 369.5,384C 364.177,384.499 358.844,384.666 353.5,384.5C 354.203,382.127 355.536,380.127 357.5,378.5 Z"/></g>
<g><path style="opacity:0.377" fill="#bdbdbd" d="M 166.5,371.5 C 167.495,383.655 167.829,395.989 167.5,408.5C 164.167,408.5 160.833,408.5 157.5,408.5C 157.5,396.833 157.5,385.167 157.5,373.5C 158.495,384.654 158.828,395.988 158.5,407.5C 161.167,407.5 163.833,407.5 166.5,407.5C 166.5,395.5 166.5,383.5 166.5,371.5 Z"/></g>
<g><path style="opacity:0.153" fill="#dedede" d="M 378.5,389.5 C 378.5,390.5 378.5,391.5 378.5,392.5C 377.167,392.5 375.833,392.5 374.5,392.5C 375.926,391.659 377.26,390.659 378.5,389.5 Z"/></g>
<g><path style="opacity:0.937" fill="#5f5f5f" d="M 283.5,370.5 C 292.521,368.564 300.021,370.897 306,377.5C 307.426,387.754 307.926,398.088 307.5,408.5C 304.5,408.5 301.5,408.5 298.5,408.5C 298.649,407.448 298.483,406.448 298,405.5C 289.782,411.312 282.115,410.645 275,403.5C 272.781,397.096 273.947,391.429 278.5,386.5C 279.5,386 280.5,385.5 281.5,385C 287.167,384.667 292.833,384.333 298.5,384C 295.892,379.03 291.892,377.363 286.5,379C 281.226,383.899 277.392,383.066 275,376.5C 277.637,374.109 280.47,372.109 283.5,370.5 Z M 288.5,391.5 C 299.916,391.029 301.249,394.195 292.5,401C 286.629,402.442 283.796,400.275 284,394.5C 285.409,393.219 286.909,392.219 288.5,391.5 Z"/></g>
</svg>
