<svg width="366" height="84" viewBox="0 0 366 84" fill="none" xmlns="http://www.w3.org/2000/svg">
<rect width="93" height="84" rx="10" fill="#EF4444" fill-opacity="0.4"/>
<line y1="-1" x2="46.0544" y2="-1" transform="matrix(-0.267801 0.963474 -0.956829 -0.290651 34.968 23.3333)" stroke="#EF4444" stroke-width="2"/>
<line y1="-1" x2="22.0891" y2="-1" transform="matrix(-0.785755 0.618537 -0.604342 -0.796725 34.4687 23.9037)" stroke="#EF4444" stroke-width="2"/>
<line y1="-1" x2="30.6407" y2="-1" transform="matrix(0.180237 0.983623 -0.982396 0.186812 17.112 37.5667)" stroke="#EF4444" stroke-width="2"/>
<line y1="-1" x2="17.8763" y2="-1" transform="matrix(0.949426 -0.31399 0.289642 0.957135 23.808 66.8889)" stroke="#EF4444" stroke-width="2"/>
<line y1="-1" x2="28.5038" y2="-1" transform="matrix(-0.704748 -0.709457 0.677512 -0.735512 49.104 68.4444)" stroke="#EF4444" stroke-width="2"/>
<line y1="-1" x2="26.7558" y2="-1" transform="matrix(0.914086 0.405519 -0.393074 0.919507 22.6346 67.7056)" stroke="#EF4444" stroke-width="2"/>
<line y1="-1" x2="26.9137" y2="-1" transform="matrix(0.894067 -0.447934 0.434757 0.900548 47.0917 78.5556)" stroke="#EF4444" stroke-width="2"/>
<line x1="40" y1="61" x2="55" y2="61" stroke="#EF4444" stroke-width="2"/>
<line y1="-1" x2="37.6608" y2="-1" transform="matrix(0.161755 -0.986831 0.984331 0.176328 40.7802 61.2759)" stroke="#EF4444" stroke-width="2"/>
<line y1="-1" x2="37.1638" y2="-1" transform="matrix(0.180176 0.983634 -0.980546 0.196289 46.872 24.1111)" stroke="#EF4444" stroke-width="2"/>
<line y1="-1" x2="27.5651" y2="-1" transform="matrix(0.647775 -0.761832 0.732548 0.680716 48.36 69.2222)" stroke="#EF4444" stroke-width="2"/>
<line y1="-1" x2="17.5847" y2="-1" transform="matrix(0.957782 0.287496 -0.264854 0.964288 54.312 61.4445)" stroke="#EF4444" stroke-width="2"/>
<line y1="-1" x2="42.7062" y2="-1" transform="matrix(0.261321 0.965252 -0.95891 0.283711 58.776 24.1111)" stroke="#EF4444" stroke-width="2"/>
<line y1="-1" x2="29.318" y2="-1" transform="matrix(0.161458 -0.98688 0.985891 0.16739 71.1544 66.5)" stroke="#EF4444" stroke-width="2"/>
<line y1="-1" x2="19.9743" y2="-1" transform="matrix(0.782204 0.623022 -0.588987 0.808142 58.776 24.1111)" stroke="#EF4444" stroke-width="2"/>
<line y1="-1" x2="31.898" y2="-1" transform="matrix(-0.185499 -0.982644 0.981346 -0.192252 75.888 37.5667)" stroke="#EF4444" stroke-width="2"/>
<line y1="-1" x2="20.718" y2="-1" transform="matrix(0.504439 -0.863447 0.842858 0.538136 59.52 24.1111)" stroke="#EF4444" stroke-width="2"/>
<line x1="34" y1="24" x2="60" y2="24" stroke="#EF4444" stroke-width="2"/>
<line y1="-1" x2="32.669" y2="-1" transform="matrix(0.182191 -0.983263 0.980107 0.198471 18.6 38.3444)" stroke="#EF4444" stroke-width="2"/>
<line y1="-1" x2="21.3793" y2="-1" transform="matrix(0.533445 0.845835 -0.823373 0.5675 23.064 6.22222)" stroke="#EF4444" stroke-width="2"/>
<path d="M113.36 41H105L106.52 16H116.96L120.08 28.72H120.36L123.48 16H133.92L135.44 41H127.08L126.6 28.88H126.32L123.28 41H117.16L114.08 28.88H113.84L113.36 41ZM147.902 20.4C154.302 20.4 157.502 22.6 157.502 27V41H153.502L151.222 38.72C150.449 39.6267 149.395 40.3333 148.062 40.84C146.729 41.3467 145.462 41.6 144.262 41.6C143.089 41.6 142.142 41.5067 141.422 41.32C140.702 41.1333 139.995 40.8133 139.302 40.36C137.782 39.4 137.022 37.6133 137.022 35C137.022 30.2 140.649 27.8 147.902 27.8H149.502V26.36C148.649 26.3067 147.942 26.28 147.382 26.28C144.369 26.28 141.782 26.64 139.622 27.36L138.662 21.64C141.329 20.8133 144.409 20.4 147.902 20.4ZM145.102 34.12V35.76H146.742C147.915 35.76 148.662 35.6267 148.982 35.36C149.329 35.0933 149.502 34.7467 149.502 34.32V32.44H147.862C146.902 32.44 146.195 32.5467 145.742 32.76C145.315 32.9467 145.102 33.4 145.102 34.12ZM161.117 21H165.117L167.317 23.24C168.891 21.8 170.864 20.8533 173.237 20.4L173.717 27.96C173.077 27.9867 172.237 28.1467 171.197 28.44C170.184 28.7333 169.491 29.1067 169.117 29.56V41H161.117V21ZM190.797 35L191.277 40.76C189.891 41.32 188.104 41.6 185.917 41.6C182.184 41.6 179.477 40.7333 177.797 39C176.144 37.24 175.317 34.5733 175.317 31C175.317 27.4267 176.144 24.7733 177.797 23.04C179.477 21.28 182.184 20.4 185.917 20.4C188.237 20.4 190.024 20.68 191.277 21.24L190.317 26.68C188.904 26.3867 187.784 26.24 186.957 26.24C184.931 26.24 183.917 26.9467 183.917 28.36V35.52C184.691 35.68 185.677 35.76 186.877 35.76C188.104 35.76 189.411 35.5067 190.797 35ZM196.157 39C194.503 37.24 193.677 34.5733 193.677 31C193.677 27.4267 194.503 24.7733 196.157 23.04C197.837 21.28 200.543 20.4 204.277 20.4C208.01 20.4 210.703 21.28 212.357 23.04C214.037 24.7733 214.877 27.4267 214.877 31C214.877 34.5733 214.037 37.24 212.357 39C210.703 40.7333 208.01 41.6 204.277 41.6C200.543 41.6 197.837 40.7333 196.157 39ZM202.277 27.92V35.76H203.517C204.477 35.76 205.17 35.6667 205.597 35.48C206.05 35.2667 206.277 34.8 206.277 34.08V26.24H205.037C204.077 26.24 203.37 26.3467 202.917 26.56C202.49 26.7467 202.277 27.2 202.277 27.92ZM219.95 21.8C221.684 20.8667 224.044 20.4 227.03 20.4C230.017 20.4 232.764 20.8133 235.27 21.64L234.35 27.08C232.27 26.4933 230.19 26.2 228.11 26.2C227.47 26.2 226.564 26.2533 225.39 26.36V27.64C229.71 27.64 232.644 28.28 234.19 29.56C234.964 30.2 235.51 30.9067 235.83 31.68C236.15 32.4267 236.31 33.3467 236.31 34.44C236.31 35.5067 236.177 36.4667 235.91 37.32C235.67 38.1733 235.284 38.8533 234.75 39.36C234.244 39.8667 233.71 40.28 233.15 40.6C232.59 40.92 231.857 41.1467 230.95 41.28C229.537 41.4933 227.897 41.6 226.03 41.6C222.724 41.6 219.737 41.2133 217.07 40.44L218.07 34.76C220.31 35.4533 222.737 35.8 225.35 35.8C226.55 35.8 227.644 35.7467 228.63 35.64V34.36C224.364 34.36 221.417 33.8 219.79 32.68C218.19 31.56 217.39 29.7067 217.39 27.12C217.39 24.5067 218.244 22.7333 219.95 21.8ZM258.781 16H267.221L261.021 41H249.341L243.141 16H251.581L254.981 31.88H255.341L258.781 16ZM278.683 20.4C285.083 20.4 288.283 22.6 288.283 27V41H284.283L282.003 38.72C281.23 39.6267 280.176 40.3333 278.843 40.84C277.51 41.3467 276.243 41.6 275.043 41.6C273.87 41.6 272.923 41.5067 272.203 41.32C271.483 41.1333 270.776 40.8133 270.083 40.36C268.563 39.4 267.803 37.6133 267.803 35C267.803 30.2 271.43 27.8 278.683 27.8H280.283V26.36C279.43 26.3067 278.723 26.28 278.163 26.28C275.15 26.28 272.563 26.64 270.403 27.36L269.443 21.64C272.11 20.8133 275.19 20.4 278.683 20.4ZM275.883 34.12V35.76H277.523C278.696 35.76 279.443 35.6267 279.763 35.36C280.11 35.0933 280.283 34.7467 280.283 34.32V32.44H278.643C277.683 32.44 276.976 32.5467 276.523 32.76C276.096 32.9467 275.883 33.4 275.883 34.12ZM299.898 14.4V35.28C300.752 35.44 301.405 35.5333 301.858 35.56L301.498 41.44C298.085 41.44 295.832 41.24 294.738 40.84C293.378 40.3333 292.538 39.6933 292.218 38.92C292.005 38.44 291.898 37.88 291.898 37.24V15L299.898 14.4ZM312.042 34.2V35.6C312.842 35.68 313.642 35.72 314.442 35.72C316.922 35.72 319.429 35.32 321.962 34.52L322.922 40.4C319.936 41.2 316.976 41.6 314.042 41.6C310.309 41.6 307.602 40.7333 305.922 39C304.269 37.24 303.442 34.5733 303.442 31C303.442 27.4267 304.269 24.7733 305.922 23.04C307.602 21.28 310.296 20.4 314.002 20.4C317.736 20.4 320.309 20.9067 321.722 21.92C323.136 22.9333 323.842 24.8267 323.842 27.6C323.842 29.9467 322.989 31.64 321.282 32.68C319.602 33.6933 316.522 34.2 312.042 34.2ZM312.042 27.92V29.56H313.682C314.642 29.56 315.336 29.4667 315.762 29.28C316.216 29.0667 316.442 28.6 316.442 27.88V26.24H314.802C313.842 26.24 313.136 26.3467 312.682 26.56C312.256 26.7467 312.042 27.2 312.042 27.92ZM326.859 21H330.859L333.059 23.24C334.633 21.8 336.606 20.8533 338.979 20.4L339.459 27.96C338.819 27.9867 337.979 28.1467 336.939 28.44C335.926 28.7333 335.233 29.1067 334.859 29.56V41H326.859V21ZM343.539 39C341.886 37.24 341.059 34.5733 341.059 31C341.059 27.4267 341.886 24.7733 343.539 23.04C345.219 21.28 347.926 20.4 351.659 20.4C355.393 20.4 358.086 21.28 359.739 23.04C361.419 24.7733 362.259 27.4267 362.259 31C362.259 34.5733 361.419 37.24 359.739 39C358.086 40.7333 355.393 41.6 351.659 41.6C347.926 41.6 345.219 40.7333 343.539 39ZM349.659 27.92V35.76H350.899C351.859 35.76 352.553 35.6667 352.979 35.48C353.433 35.2667 353.659 34.8 353.659 34.08V26.24H352.419C351.459 26.24 350.753 26.3467 350.299 26.56C349.873 26.7467 349.659 27.2 349.659 27.92Z" fill="#EF4444"/>
<path d="M123.114 66V48.5455H133.58V50.4205H125.227V56.3182H132.795V58.1932H125.227V66H123.114ZM144.357 60.6477V52.9091H146.368V66H144.357V63.7841H144.22C143.913 64.4489 143.436 65.0142 142.788 65.4801C142.141 65.9403 141.322 66.1705 140.334 66.1705C139.516 66.1705 138.788 65.9915 138.152 65.6335C137.516 65.2699 137.016 64.7244 136.652 63.9972C136.288 63.2642 136.107 62.3409 136.107 61.2273V52.9091H138.118V61.0909C138.118 62.0455 138.385 62.8068 138.919 63.375C139.459 63.9432 140.146 64.2273 140.982 64.2273C141.482 64.2273 141.99 64.0994 142.507 63.8438C143.03 63.5881 143.467 63.196 143.82 62.6676C144.178 62.1392 144.357 61.4659 144.357 60.6477ZM152.063 48.5455V66H150.052V48.5455H152.063ZM157.759 48.5455V66H155.747V48.5455H157.759ZM171.261 52.9091C171.158 52.0455 170.744 51.375 170.016 50.8977C169.289 50.4205 168.397 50.1818 167.34 50.1818C166.567 50.1818 165.891 50.3068 165.312 50.5568C164.738 50.8068 164.289 51.1506 163.965 51.5881C163.647 52.0256 163.488 52.5227 163.488 53.0795C163.488 53.5455 163.599 53.946 163.82 54.2812C164.048 54.6108 164.337 54.8864 164.69 55.108C165.042 55.3239 165.411 55.5028 165.798 55.6449C166.184 55.7812 166.539 55.892 166.863 55.9773L168.636 56.4545C169.09 56.5739 169.596 56.7386 170.153 56.9489C170.715 57.1591 171.252 57.446 171.763 57.8097C172.281 58.1676 172.707 58.6278 173.042 59.1903C173.377 59.7528 173.545 60.4432 173.545 61.2614C173.545 62.2045 173.298 63.0568 172.803 63.8182C172.315 64.5795 171.599 65.1847 170.656 65.6335C169.718 66.0824 168.579 66.3068 167.238 66.3068C165.988 66.3068 164.906 66.1051 163.991 65.7017C163.082 65.2983 162.366 64.7358 161.843 64.0142C161.326 63.2926 161.033 62.4545 160.965 61.5H163.147C163.204 62.1591 163.425 62.7045 163.812 63.1364C164.204 63.5625 164.698 63.8807 165.295 64.0909C165.897 64.2955 166.545 64.3977 167.238 64.3977C168.045 64.3977 168.769 64.267 169.411 64.0057C170.053 63.7386 170.562 63.3693 170.937 62.8977C171.312 62.4205 171.499 61.8636 171.499 61.2273C171.499 60.6477 171.337 60.1761 171.013 59.8125C170.69 59.4489 170.263 59.1534 169.735 58.9261C169.207 58.6989 168.636 58.5 168.022 58.3295L165.874 57.7159C164.511 57.3239 163.431 56.7642 162.636 56.0369C161.84 55.3097 161.442 54.358 161.442 53.1818C161.442 52.2045 161.707 51.3523 162.235 50.625C162.769 49.892 163.485 49.3239 164.383 48.9205C165.286 48.5114 166.295 48.3068 167.408 48.3068C168.533 48.3068 169.533 48.5085 170.408 48.9119C171.283 49.3097 171.977 49.8551 172.488 50.5483C173.005 51.2415 173.278 52.0284 173.306 52.9091H171.261ZM182.44 52.9091V54.6136H175.656V52.9091H182.44ZM177.634 49.7727H179.645V62.25C179.645 62.8182 179.727 63.2443 179.892 63.5284C180.063 63.8068 180.278 63.9943 180.54 64.0909C180.807 64.1818 181.088 64.2273 181.384 64.2273C181.605 64.2273 181.787 64.2159 181.929 64.1932C182.071 64.1648 182.185 64.142 182.27 64.125L182.679 65.9318C182.543 65.983 182.352 66.0341 182.108 66.0852C181.864 66.142 181.554 66.1705 181.179 66.1705C180.611 66.1705 180.054 66.0483 179.509 65.804C178.969 65.5597 178.52 65.1875 178.162 64.6875C177.81 64.1875 177.634 63.5568 177.634 62.7955V49.7727ZM189.318 66.3068C188.489 66.3068 187.736 66.1506 187.06 65.8381C186.384 65.5199 185.847 65.0625 185.449 64.4659C185.051 63.8636 184.852 63.1364 184.852 62.2841C184.852 61.5341 185 60.9261 185.295 60.4602C185.591 59.9886 185.986 59.6193 186.48 59.3523C186.974 59.0852 187.52 58.8864 188.116 58.7557C188.719 58.6193 189.324 58.5114 189.932 58.4318C190.727 58.3295 191.372 58.2528 191.866 58.2017C192.366 58.1449 192.73 58.0511 192.957 57.9205C193.19 57.7898 193.307 57.5625 193.307 57.2386V57.1705C193.307 56.3295 193.077 55.6761 192.616 55.2102C192.162 54.7443 191.472 54.5114 190.545 54.5114C189.585 54.5114 188.832 54.7216 188.287 55.142C187.741 55.5625 187.358 56.0114 187.136 56.4886L185.227 55.8068C185.568 55.0114 186.023 54.392 186.591 53.9489C187.165 53.5 187.79 53.1875 188.466 53.0114C189.148 52.8295 189.818 52.7386 190.477 52.7386C190.898 52.7386 191.381 52.7898 191.926 52.892C192.477 52.9886 193.009 53.1903 193.52 53.4972C194.037 53.804 194.466 54.267 194.807 54.8864C195.148 55.5057 195.318 56.3352 195.318 57.375V66H193.307V64.2273H193.205C193.068 64.5114 192.841 64.8153 192.523 65.1392C192.205 65.4631 191.781 65.7386 191.253 65.9659C190.724 66.1932 190.08 66.3068 189.318 66.3068ZM189.625 64.5C190.42 64.5 191.091 64.3438 191.636 64.0312C192.188 63.7188 192.602 63.3153 192.881 62.821C193.165 62.3267 193.307 61.8068 193.307 61.2614V59.4205C193.222 59.5227 193.034 59.6165 192.744 59.7017C192.46 59.7812 192.131 59.8523 191.756 59.9148C191.386 59.9716 191.026 60.0227 190.673 60.0682C190.327 60.108 190.045 60.142 189.83 60.1705C189.307 60.2386 188.818 60.3494 188.364 60.5028C187.915 60.6506 187.551 60.875 187.273 61.1761C187 61.4716 186.864 61.875 186.864 62.3864C186.864 63.0852 187.122 63.6136 187.639 63.9716C188.162 64.3239 188.824 64.5 189.625 64.5ZM204.308 66.2727C203.08 66.2727 202.023 65.983 201.137 65.4034C200.251 64.8239 199.569 64.0256 199.092 63.0085C198.614 61.9915 198.376 60.8295 198.376 59.5227C198.376 58.1932 198.62 57.0199 199.109 56.0028C199.603 54.9801 200.29 54.1818 201.171 53.608C202.058 53.0284 203.092 52.7386 204.273 52.7386C205.194 52.7386 206.023 52.9091 206.762 53.25C207.501 53.5909 208.106 54.0682 208.577 54.6818C209.049 55.2955 209.342 56.0114 209.455 56.8295H207.444C207.29 56.233 206.95 55.7045 206.421 55.2443C205.898 54.7784 205.194 54.5455 204.308 54.5455C203.523 54.5455 202.836 54.75 202.245 55.1591C201.66 55.5625 201.202 56.1335 200.873 56.8722C200.549 57.6051 200.387 58.4659 200.387 59.4545C200.387 60.4659 200.546 61.3466 200.864 62.0966C201.188 62.8466 201.643 63.429 202.228 63.8438C202.819 64.2585 203.512 64.4659 204.308 64.4659C204.83 64.4659 205.305 64.375 205.731 64.1932C206.157 64.0114 206.518 63.75 206.813 63.4091C207.109 63.0682 207.319 62.6591 207.444 62.1818H209.455C209.342 62.9545 209.06 63.6506 208.612 64.2699C208.168 64.8835 207.58 65.3722 206.847 65.7358C206.12 66.0938 205.273 66.2727 204.308 66.2727ZM214.271 61.2273L214.237 58.7386H214.646L220.373 52.9091H222.862L216.759 59.0795H216.589L214.271 61.2273ZM212.396 66V48.5455H214.407V66H212.396ZM220.714 66L215.6 59.5227L217.032 58.125L223.271 66H220.714ZM237.859 66H232.473V48.5455H238.098C239.791 48.5455 241.24 48.8949 242.445 49.5938C243.649 50.2869 244.572 51.2841 245.214 52.5852C245.857 53.8807 246.178 55.4318 246.178 57.2386C246.178 59.0568 245.854 60.6222 245.206 61.9347C244.558 63.2415 243.615 64.2472 242.376 64.9517C241.138 65.6506 239.632 66 237.859 66ZM234.587 64.125H237.723C239.166 64.125 240.362 63.8466 241.311 63.2898C242.26 62.733 242.967 61.9403 243.433 60.9119C243.899 59.8835 244.132 58.6591 244.132 57.2386C244.132 55.8295 243.902 54.6165 243.442 53.5994C242.982 52.5767 242.294 51.7926 241.379 51.2472C240.464 50.696 239.325 50.4205 237.962 50.4205H234.587V64.125ZM254.939 66.2727C253.678 66.2727 252.589 65.9943 251.675 65.4375C250.766 64.875 250.064 64.0909 249.57 63.0852C249.081 62.0739 248.837 60.8977 248.837 59.5568C248.837 58.2159 249.081 57.0341 249.57 56.0114C250.064 54.983 250.751 54.1818 251.632 53.608C252.518 53.0284 253.553 52.7386 254.734 52.7386C255.416 52.7386 256.089 52.8523 256.754 53.0795C257.419 53.3068 258.024 53.6761 258.57 54.1875C259.115 54.6932 259.55 55.3636 259.874 56.1989C260.197 57.0341 260.359 58.0625 260.359 59.2841V60.1364H250.268V58.3977H258.314C258.314 57.6591 258.166 57 257.871 56.4205C257.581 55.8409 257.166 55.3835 256.626 55.0483C256.092 54.7131 255.462 54.5455 254.734 54.5455C253.933 54.5455 253.24 54.7443 252.655 55.142C252.075 55.5341 251.629 56.0455 251.317 56.6761C251.004 57.3068 250.848 57.983 250.848 58.7045V59.8636C250.848 60.8523 251.018 61.6903 251.359 62.3778C251.706 63.0597 252.186 63.5795 252.8 63.9375C253.413 64.2898 254.126 64.4659 254.939 64.4659C255.467 64.4659 255.945 64.392 256.371 64.2443C256.803 64.0909 257.175 63.8636 257.487 63.5625C257.8 63.2557 258.041 62.875 258.212 62.4205L260.155 62.9659C259.95 63.625 259.607 64.2045 259.124 64.7045C258.641 65.1989 258.044 65.5852 257.334 65.8636C256.624 66.1364 255.825 66.2727 254.939 66.2727ZM273.725 52.9091L268.884 66H266.839L261.998 52.9091H264.18L267.793 63.3409H267.93L271.543 52.9091H273.725ZM281.4 66.2727C280.138 66.2727 279.05 65.9943 278.136 65.4375C277.227 64.875 276.525 64.0909 276.031 63.0852C275.542 62.0739 275.298 60.8977 275.298 59.5568C275.298 58.2159 275.542 57.0341 276.031 56.0114C276.525 54.983 277.212 54.1818 278.093 53.608C278.979 53.0284 280.013 52.7386 281.195 52.7386C281.877 52.7386 282.55 52.8523 283.215 53.0795C283.88 53.3068 284.485 53.6761 285.031 54.1875C285.576 54.6932 286.011 55.3636 286.335 56.1989C286.658 57.0341 286.82 58.0625 286.82 59.2841V60.1364H276.729V58.3977H284.775C284.775 57.6591 284.627 57 284.332 56.4205C284.042 55.8409 283.627 55.3835 283.087 55.0483C282.553 54.7131 281.923 54.5455 281.195 54.5455C280.394 54.5455 279.701 54.7443 279.116 55.142C278.536 55.5341 278.09 56.0455 277.778 56.6761C277.465 57.3068 277.309 57.983 277.309 58.7045V59.8636C277.309 60.8523 277.479 61.6903 277.82 62.3778C278.167 63.0597 278.647 63.5795 279.261 63.9375C279.874 64.2898 280.587 64.4659 281.4 64.4659C281.928 64.4659 282.406 64.392 282.832 64.2443C283.263 64.0909 283.636 63.8636 283.948 63.5625C284.261 63.2557 284.502 62.875 284.673 62.4205L286.616 62.9659C286.411 63.625 286.067 64.2045 285.585 64.7045C285.102 65.1989 284.505 65.5852 283.795 65.8636C283.085 66.1364 282.286 66.2727 281.4 66.2727ZM291.891 48.5455V66H289.88V48.5455H291.891ZM300.893 66.2727C299.712 66.2727 298.675 65.9915 297.783 65.429C296.896 64.8665 296.203 64.0795 295.703 63.0682C295.209 62.0568 294.962 60.875 294.962 59.5227C294.962 58.1591 295.209 56.9687 295.703 55.9517C296.203 54.9347 296.896 54.1449 297.783 53.5824C298.675 53.0199 299.712 52.7386 300.893 52.7386C302.075 52.7386 303.109 53.0199 303.996 53.5824C304.888 54.1449 305.581 54.9347 306.075 55.9517C306.575 56.9687 306.825 58.1591 306.825 59.5227C306.825 60.875 306.575 62.0568 306.075 63.0682C305.581 64.0795 304.888 64.8665 303.996 65.429C303.109 65.9915 302.075 66.2727 300.893 66.2727ZM300.893 64.4659C301.791 64.4659 302.53 64.2358 303.109 63.7756C303.689 63.3153 304.118 62.7102 304.396 61.9602C304.675 61.2102 304.814 60.3977 304.814 59.5227C304.814 58.6477 304.675 57.8324 304.396 57.0767C304.118 56.321 303.689 55.7102 303.109 55.2443C302.53 54.7784 301.791 54.5455 300.893 54.5455C299.996 54.5455 299.257 54.7784 298.678 55.2443C298.098 55.7102 297.669 56.321 297.391 57.0767C297.112 57.8324 296.973 58.6477 296.973 59.5227C296.973 60.3977 297.112 61.2102 297.391 61.9602C297.669 62.7102 298.098 63.3153 298.678 63.7756C299.257 64.2358 299.996 64.4659 300.893 64.4659ZM309.896 70.9091V52.9091H311.839V54.9886H312.077C312.225 54.7614 312.43 54.4716 312.691 54.1193C312.958 53.7614 313.339 53.4432 313.833 53.1648C314.333 52.8807 315.009 52.7386 315.862 52.7386C316.964 52.7386 317.935 53.0142 318.776 53.5653C319.617 54.1165 320.273 54.8977 320.745 55.9091C321.217 56.9205 321.452 58.1136 321.452 59.4886C321.452 60.875 321.217 62.0767 320.745 63.0938C320.273 64.1051 319.62 64.8892 318.785 65.446C317.95 65.9972 316.987 66.2727 315.896 66.2727C315.055 66.2727 314.381 66.1335 313.876 65.8551C313.37 65.571 312.981 65.25 312.708 64.892C312.435 64.5284 312.225 64.2273 312.077 63.9886H311.907V70.9091H309.896ZM311.873 59.4545C311.873 60.4432 312.018 61.3153 312.308 62.071C312.597 62.821 313.021 63.4091 313.577 63.8352C314.134 64.2557 314.816 64.4659 315.623 64.4659C316.464 64.4659 317.165 64.2443 317.728 63.8011C318.296 63.3523 318.722 62.75 319.006 61.9943C319.296 61.233 319.441 60.3864 319.441 59.4545C319.441 58.5341 319.299 57.7045 319.015 56.9659C318.737 56.2216 318.313 55.6335 317.745 55.2017C317.183 54.7642 316.475 54.5455 315.623 54.5455C314.805 54.5455 314.117 54.7528 313.56 55.1676C313.004 55.5767 312.583 56.1506 312.299 56.8892C312.015 57.6222 311.873 58.4773 311.873 59.4545ZM330.009 66.2727C328.748 66.2727 327.66 65.9943 326.745 65.4375C325.836 64.875 325.134 64.0909 324.64 63.0852C324.151 62.0739 323.907 60.8977 323.907 59.5568C323.907 58.2159 324.151 57.0341 324.64 56.0114C325.134 54.983 325.822 54.1818 326.702 53.608C327.589 53.0284 328.623 52.7386 329.805 52.7386C330.487 52.7386 331.16 52.8523 331.825 53.0795C332.489 53.3068 333.094 53.6761 333.64 54.1875C334.185 54.6932 334.62 55.3636 334.944 56.1989C335.268 57.0341 335.43 58.0625 335.43 59.2841V60.1364H325.339V58.3977H333.384C333.384 57.6591 333.237 57 332.941 56.4205C332.651 55.8409 332.237 55.3835 331.697 55.0483C331.163 54.7131 330.532 54.5455 329.805 54.5455C329.004 54.5455 328.31 54.7443 327.725 55.142C327.146 55.5341 326.7 56.0455 326.387 56.6761C326.075 57.3068 325.918 57.983 325.918 58.7045V59.8636C325.918 60.8523 326.089 61.6903 326.43 62.3778C326.776 63.0597 327.256 63.5795 327.87 63.9375C328.484 64.2898 329.197 64.4659 330.009 64.4659C330.538 64.4659 331.015 64.392 331.441 64.2443C331.873 64.0909 332.245 63.8636 332.558 63.5625C332.87 63.2557 333.112 62.875 333.282 62.4205L335.225 62.9659C335.021 63.625 334.677 64.2045 334.194 64.7045C333.711 65.1989 333.114 65.5852 332.404 65.8636C331.694 66.1364 330.896 66.2727 330.009 66.2727ZM338.489 66V52.9091H340.433V54.8864H340.569C340.808 54.2386 341.239 53.7131 341.864 53.3097C342.489 52.9062 343.194 52.7045 343.978 52.7045C344.126 52.7045 344.31 52.7074 344.532 52.7131C344.754 52.7187 344.921 52.7273 345.035 52.7386V54.7841C344.967 54.767 344.81 54.7415 344.566 54.7074C344.327 54.6676 344.075 54.6477 343.808 54.6477C343.171 54.6477 342.603 54.7812 342.103 55.0483C341.609 55.3097 341.217 55.6733 340.927 56.1392C340.643 56.5994 340.501 57.125 340.501 57.7159V66H338.489Z" fill="#EF4444" fill-opacity="0.4"/>
</svg>
