<?xml version="1.0" encoding="UTF-8"?>
<svg version="1.1" xmlns="http://www.w3.org/2000/svg" width="480" height="480">
<path d="M0 0 C1.78246376 -0.01052147 1.78246376 -0.01052147 3.60093689 -0.02125549 C7.41238237 -0.03865453 11.22367252 -0.04510723 15.03515625 -0.046875 C16.33688782 -0.04754974 17.63861938 -0.04822449 18.97979736 -0.04891968 C37.8731917 -0.03334092 56.39691244 0.29001521 75.09765625 3.203125 C76.81178711 3.46053467 76.81178711 3.46053467 78.56054688 3.72314453 C112.67637143 8.96992953 146.03224895 17.98660023 177.09765625 33.203125 C178.20826416 33.74404785 178.20826416 33.74404785 179.34130859 34.29589844 C211.87076335 50.32657505 240.24836612 74.26135848 253.4140625 108.640625 C259.67729963 128.19414579 257.19699964 149.31857844 248.28515625 167.515625 C242.89958673 177.96769304 236.16474269 186.6670219 228.09765625 195.203125 C227.38351562 195.99332031 226.669375 196.78351563 225.93359375 197.59765625 C182.11225377 244.20488898 103.55873497 262.18137297 42.00732422 264.30999756 C38.76891371 264.36631499 35.5318419 264.39344134 32.29296875 264.40625 C31.10324463 264.41326431 29.91352051 264.42027863 28.68774414 264.42750549 C24.86600931 264.44492598 21.04442934 264.45135835 17.22265625 264.453125 C15.26631256 264.45413712 15.26631256 264.45413712 13.27044678 264.45516968 C-5.64142158 264.43959968 -24.1833483 264.11907794 -42.90234375 261.203125 C-44.04509766 261.03151855 -45.18785156 260.85991211 -46.36523438 260.68310547 C-80.48105893 255.43632047 -113.83693645 246.41964977 -144.90234375 231.203125 C-145.64274902 230.84250977 -146.3831543 230.48189453 -147.14599609 230.11035156 C-179.67545085 214.07967495 -208.05305362 190.14489152 -221.21875 155.765625 C-227.48198713 136.21210421 -225.00168714 115.08767156 -216.08984375 96.890625 C-210.70427423 86.43855696 -203.96943019 77.7392281 -195.90234375 69.203125 C-195.18820313 68.41292969 -194.4740625 67.62273437 -193.73828125 66.80859375 C-147.70076308 17.84429178 -64.46509109 0.25612703 0 0 Z " fill="#DBD4F1" transform="translate(223.90234375,107.796875)"/>
<path d="M0 0 C1.78246376 -0.01052147 1.78246376 -0.01052147 3.60093689 -0.02125549 C7.41238237 -0.03865453 11.22367252 -0.04510723 15.03515625 -0.046875 C16.33688782 -0.04754974 17.63861938 -0.04822449 18.97979736 -0.04891968 C37.8731917 -0.03334092 56.39691244 0.29001521 75.09765625 3.203125 C76.81178711 3.46053467 76.81178711 3.46053467 78.56054688 3.72314453 C112.67637143 8.96992953 146.03224895 17.98660023 177.09765625 33.203125 C178.20826416 33.74404785 178.20826416 33.74404785 179.34130859 34.29589844 C211.87076335 50.32657505 240.24836612 74.26135848 253.4140625 108.640625 C259.67729963 128.19414579 257.19699964 149.31857844 248.28515625 167.515625 C242.89958673 177.96769304 236.16474269 186.6670219 228.09765625 195.203125 C227.38351562 195.99332031 226.669375 196.78351563 225.93359375 197.59765625 C182.11225377 244.20488898 103.55873497 262.18137297 42.00732422 264.30999756 C38.76891371 264.36631499 35.5318419 264.39344134 32.29296875 264.40625 C31.10324463 264.41326431 29.91352051 264.42027863 28.68774414 264.42750549 C24.86600931 264.44492598 21.04442934 264.45135835 17.22265625 264.453125 C15.26631256 264.45413712 15.26631256 264.45413712 13.27044678 264.45516968 C-5.64142158 264.43959968 -24.1833483 264.11907794 -42.90234375 261.203125 C-44.04509766 261.03151855 -45.18785156 260.85991211 -46.36523438 260.68310547 C-80.48105893 255.43632047 -113.83693645 246.41964977 -144.90234375 231.203125 C-145.64274902 230.84250977 -146.3831543 230.48189453 -147.14599609 230.11035156 C-179.67545085 214.07967495 -208.05305362 190.14489152 -221.21875 155.765625 C-227.48198713 136.21210421 -225.00168714 115.08767156 -216.08984375 96.890625 C-210.70427423 86.43855696 -203.96943019 77.7392281 -195.90234375 69.203125 C-195.18820313 68.41292969 -194.4740625 67.62273437 -193.73828125 66.80859375 C-147.70076308 17.84429178 -64.46509109 0.25612703 0 0 Z M-39.90234375 9.203125 C-41.56330078 9.4199292 -41.56330078 9.4199292 -43.2578125 9.64111328 C-100.31177242 17.33521809 -163.43701706 38.00204069 -200.90234375 84.203125 C-211.30660361 98.03199769 -218.33900779 114.00669534 -218.21484375 131.515625 C-218.2099292 132.34594238 -218.20501465 133.17625977 -218.19995117 134.03173828 C-218.07217101 140.77197778 -217.10427595 146.80956283 -214.90234375 153.203125 C-214.55042969 154.26917969 -214.19851562 155.33523438 -213.8359375 156.43359375 C-202.01605441 189.70871016 -170.4383927 211.7073585 -139.8046875 226.375 C-138.50470323 226.98607335 -137.20393236 227.59547637 -135.90234375 228.203125 C-135.28246582 228.49638672 -134.66258789 228.78964844 -134.02392578 229.09179688 C-114.80624617 238.11531389 -94.53726507 244.36237297 -73.90234375 249.203125 C-73.09861328 249.39358398 -72.29488281 249.58404297 -71.46679688 249.78027344 C-47.94788929 255.23121891 -22.76937777 258.34301597 1.36328125 258.37109375 C2.91713531 258.37608635 2.91713531 258.37608635 4.50238037 258.38117981 C6.68387413 258.38620634 8.86537546 258.38858947 11.046875 258.38842773 C14.29831484 258.39059215 17.54940215 258.40873345 20.80078125 258.42773438 C41.68548629 258.48625215 62.19742744 256.88941419 82.78515625 253.390625 C83.57903748 253.25763 84.3729187 253.12463501 85.19085693 252.98760986 C139.08157523 243.93117142 201.70102841 223.94950274 235.09375 177.421875 C247.46832472 158.47413909 252.87607585 139.07643656 248.9140625 116.5234375 C241.69138558 87.14891414 218.23289598 64.96830875 193.28515625 49.578125 C172.81004659 37.21607864 150.91152461 28.25752434 128.09765625 21.203125 C126.86499023 20.81278076 126.86499023 20.81278076 125.60742188 20.41455078 C113.20354172 16.53649388 100.64581002 14.08452352 87.84765625 11.953125 C87.10055389 11.82815643 86.35345154 11.70318787 85.58370972 11.57443237 C75.10594579 9.83977763 64.61345411 8.46563422 54.04663086 7.40136719 C52.39655213 7.23352754 50.74788679 7.05188047 49.09960938 6.8671875 C38.55960144 5.80177154 27.92993788 5.96007727 17.34765625 5.953125 C16.28441132 5.95211792 15.22116638 5.95111084 14.1257019 5.95007324 C-4.06430093 5.96168457 -21.85770563 6.80417127 -39.90234375 9.203125 Z " fill="#8C76A2" transform="translate(223.90234375,107.796875)"/>
<path d="M0 0 C5.77997948 -0.09967465 11.55944688 -0.17184583 17.34008789 -0.21972656 C19.30209074 -0.23970918 21.26403505 -0.26690484 23.22583008 -0.30175781 C44.21413149 -0.6650066 44.21413149 -0.6650066 53 4 C54.04462402 4.55167847 54.04462402 4.55167847 55.11035156 5.11450195 C60.49969312 8.20062325 63.17372076 13.20600791 65 19 C66.67194536 29.86764481 63.33749885 41.14403569 56.953125 50.02734375 C49.52147312 57.53331215 38.15917563 60.0130034 27.91748047 60.22705078 C26.1506845 60.22674049 24.38386439 60.2158271 22.6171875 60.1953125 C21.67690704 60.1924826 20.73662659 60.18965271 19.76785278 60.18673706 C16.80343173 60.17565978 13.83932769 60.15057951 10.875 60.125 C8.84896274 60.11495407 6.82292068 60.10583106 4.796875 60.09765625 C-0.13553635 60.07576144 -5.06771468 60.04131957 -10 60 C-10.12021959 55.01970313 -9.70213613 50.44807007 -8.828125 45.546875 C-8.70443542 44.8471759 -8.58074585 44.14747681 -8.45330811 43.42657471 C-8.19047077 41.9469602 -7.92473437 40.46785806 -7.65625 38.98925781 C-7.25883105 36.79867693 -6.87077086 34.60661131 -6.484375 32.4140625 C-4.55280518 21.559698 -2.32109492 10.77715061 0 0 Z " fill="#DAD3F0" transform="translate(331,204)"/>
<path d="M0 0 C5.77997948 -0.09967465 11.55944688 -0.17184583 17.34008789 -0.21972656 C19.30209074 -0.23970918 21.26403505 -0.26690484 23.22583008 -0.30175781 C44.21413149 -0.6650066 44.21413149 -0.6650066 53 4 C54.04462402 4.55167847 54.04462402 4.55167847 55.11035156 5.11450195 C60.49969312 8.20062325 63.17372076 13.20600791 65 19 C66.67194536 29.86764481 63.33749885 41.14403569 56.953125 50.02734375 C49.52147312 57.53331215 38.15917563 60.0130034 27.91748047 60.22705078 C26.1506845 60.22674049 24.38386439 60.2158271 22.6171875 60.1953125 C21.67690704 60.1924826 20.73662659 60.18965271 19.76785278 60.18673706 C16.80343173 60.17565978 13.83932769 60.15057951 10.875 60.125 C8.84896274 60.11495407 6.82292068 60.10583106 4.796875 60.09765625 C-0.13553635 60.07576144 -5.06771468 60.04131957 -10 60 C-10.12021959 55.01970313 -9.70213613 50.44807007 -8.828125 45.546875 C-8.70443542 44.8471759 -8.58074585 44.14747681 -8.45330811 43.42657471 C-8.19047077 41.9469602 -7.92473437 40.46785806 -7.65625 38.98925781 C-7.25883105 36.79867693 -6.87077086 34.60661131 -6.484375 32.4140625 C-4.55280518 21.559698 -2.32109492 10.77715061 0 0 Z " fill="#DAD3F0" transform="translate(115,204)"/>
<path d="M0 0 C7.30985434 -0.10223167 14.61952128 -0.17181144 21.92993164 -0.21972656 C24.41177256 -0.2397219 26.89356709 -0.26692726 29.37524414 -0.30175781 C32.96251947 -0.35080964 36.54916678 -0.37309058 40.13671875 -0.390625 C41.22893234 -0.41127014 42.32114594 -0.43191528 43.44645691 -0.45318604 C55.99605078 -0.45676256 67.08122041 3.06961749 76.625 11.25 C84.31587981 20.15522925 87.60944077 27.83117886 87.4453125 39.70703125 C86.66584598 50.24943844 82.61014532 62.48176465 75 70 C74.40445313 70.62003906 73.80890625 71.24007812 73.1953125 71.87890625 C58.81738617 85.70827716 36.54281944 84.42790348 18 84.1875 C15.95313495 84.17241135 13.90625903 84.15873041 11.859375 84.14648438 C6.9059751 84.11384367 1.95311202 84.06229727 -3 84 C-3.08522919 84.66074524 -3.17045837 85.32149048 -3.25827026 86.0022583 C-4.7405773 97.47007754 -6.37033641 108.73001317 -9 120 C-12.96 120 -16.92 120 -21 120 C-19.77306714 109.43003891 -18.21695538 98.97239979 -16.3125 88.5 C-15.91538253 86.28903946 -15.51974457 84.0778169 -15.12409973 81.86659241 C-14.84707635 80.31908988 -14.56955403 78.77167658 -14.29154968 77.22434998 C-13.25229664 71.43514199 -12.234378 65.64241463 -11.2265625 59.84765625 C-11.07888931 58.99861221 -10.93121613 58.14956818 -10.77906799 57.27479553 C-10.48068202 55.55896179 -10.18230656 53.84312622 -9.88394165 52.12728882 C-7.68100579 39.47151339 -5.45199499 26.82111838 -3.125 14.1875 C-2.92189209 13.07898682 -2.71878418 11.97047363 -2.50952148 10.82836914 C-2.32333252 9.82668701 -2.13714355 8.82500488 -1.9453125 7.79296875 C-1.78562988 6.9321167 -1.62594727 6.07126465 -1.46142578 5.18432617 C-1 3 -1 3 0 0 Z M10 12 C7.52455824 23.49380338 5.17541895 34.9957958 3.13476562 46.57519531 C2.74229449 48.79355373 2.33998341 51.01000124 1.9375 53.2265625 C1.6816999 54.66656167 1.42646918 56.10666213 1.171875 57.546875 C0.9459668 58.81370117 0.72005859 60.08052734 0.48730469 61.38574219 C0.00375777 64.97212927 -0.08723607 68.38610022 0 72 C5.90410675 72.07481809 11.80793032 72.12891456 17.71240234 72.16479492 C19.71603205 72.17977142 21.71962961 72.20015981 23.72314453 72.22631836 C45.40973077 72.54558728 45.40973077 72.54558728 65 64 C71.80857618 56.85392974 75.10133387 46.58441661 75.5625 36.875 C75.30571931 30.744361 73.74232292 25.89380689 70 21 C62.0097267 13.68974996 52.47714751 11.51986541 41.93359375 11.70703125 C41.01409439 11.71127609 40.09459503 11.71552094 39.14723206 11.71989441 C36.24367541 11.73653224 33.34084274 11.77415533 30.4375 11.8125 C28.45508823 11.82756614 26.47266546 11.84125114 24.49023438 11.85351562 C19.65988222 11.88638674 14.83006336 11.93806389 10 12 Z " fill="#38424F" transform="translate(321,192)"/>
<path d="M0 0 C7.30985434 -0.10223167 14.61952128 -0.17181144 21.92993164 -0.21972656 C24.41177256 -0.2397219 26.89356709 -0.26692726 29.37524414 -0.30175781 C32.96251947 -0.35080964 36.54916678 -0.37309058 40.13671875 -0.390625 C41.22893234 -0.41127014 42.32114594 -0.43191528 43.44645691 -0.45318604 C55.99605078 -0.45676256 67.08122041 3.06961749 76.625 11.25 C84.31587981 20.15522925 87.60944077 27.83117886 87.4453125 39.70703125 C86.66584598 50.24943844 82.61014532 62.48176465 75 70 C74.40445313 70.62003906 73.80890625 71.24007812 73.1953125 71.87890625 C58.81738617 85.70827716 36.54281944 84.42790348 18 84.1875 C15.95313495 84.17241135 13.90625903 84.15873041 11.859375 84.14648438 C6.9059751 84.11384367 1.95311202 84.06229727 -3 84 C-3.08522919 84.66074524 -3.17045837 85.32149048 -3.25827026 86.0022583 C-4.7405773 97.47007754 -6.37033641 108.73001317 -9 120 C-12.96 120 -16.92 120 -21 120 C-19.77306714 109.43003891 -18.21695538 98.97239979 -16.3125 88.5 C-15.91538253 86.28903946 -15.51974457 84.0778169 -15.12409973 81.86659241 C-14.84707635 80.31908988 -14.56955403 78.77167658 -14.29154968 77.22434998 C-13.25229664 71.43514199 -12.234378 65.64241463 -11.2265625 59.84765625 C-11.07888931 58.99861221 -10.93121613 58.14956818 -10.77906799 57.27479553 C-10.48068202 55.55896179 -10.18230656 53.84312622 -9.88394165 52.12728882 C-7.68100579 39.47151339 -5.45199499 26.82111838 -3.125 14.1875 C-2.92189209 13.07898682 -2.71878418 11.97047363 -2.50952148 10.82836914 C-2.32333252 9.82668701 -2.13714355 8.82500488 -1.9453125 7.79296875 C-1.78562988 6.9321167 -1.62594727 6.07126465 -1.46142578 5.18432617 C-1 3 -1 3 0 0 Z M10 12 C7.52455824 23.49380338 5.17541895 34.9957958 3.13476562 46.57519531 C2.74229449 48.79355373 2.33998341 51.01000124 1.9375 53.2265625 C1.6816999 54.66656167 1.42646918 56.10666213 1.171875 57.546875 C0.9459668 58.81370117 0.72005859 60.08052734 0.48730469 61.38574219 C0.00375777 64.97212927 -0.08723607 68.38610022 0 72 C5.90410675 72.07481809 11.80793032 72.12891456 17.71240234 72.16479492 C19.71603205 72.17977142 21.71962961 72.20015981 23.72314453 72.22631836 C45.40973077 72.54558728 45.40973077 72.54558728 65 64 C71.80857618 56.85392974 75.10133387 46.58441661 75.5625 36.875 C75.30571931 30.744361 73.74232292 25.89380689 70 21 C62.0097267 13.68974996 52.47714751 11.51986541 41.93359375 11.70703125 C41.01409439 11.71127609 40.09459503 11.71552094 39.14723206 11.71989441 C36.24367541 11.73653224 33.34084274 11.77415533 30.4375 11.8125 C28.45508823 11.82756614 26.47266546 11.84125114 24.49023438 11.85351562 C19.65988222 11.88638674 14.83006336 11.93806389 10 12 Z " fill="#38424F" transform="translate(105,192)"/>
<path d="M0 0 C4.29 0 8.58 0 13 0 C10.69 11.88 8.38 23.76 6 36 C10.46466797 35.96519531 10.46466797 35.96519531 15.01953125 35.9296875 C17.93546117 35.91404372 20.85138623 35.90192595 23.76733398 35.89013672 C25.7777723 35.88014336 27.78819633 35.86654412 29.79858398 35.84912109 C59.82432322 35.59561349 59.82432322 35.59561349 68 43 C69.68973591 45.27917867 70.77742899 47.40814947 72 50 C72.33 50.66 72.66 51.32 73 52 C73.95294119 62.68011285 71.80478992 72.79864994 69.6875 83.1875 C69.06201531 86.3259595 68.44308309 89.4656981 67.82421875 92.60546875 C67.6718576 93.3718869 67.51949646 94.13830505 67.36251831 94.927948 C65.7215189 103.25412858 64.34670543 111.62195636 63 120 C58.71 120 54.42 120 50 120 C50.63820701 113.60100771 51.59307236 107.35110348 52.8125 101.0390625 C52.98628174 100.12667816 53.16006348 99.21429382 53.33911133 98.27426147 C53.70391661 96.36302664 54.07039296 94.45211008 54.43847656 92.54150391 C55.00229118 89.61309983 55.56012918 86.68360226 56.1171875 83.75390625 C56.47360853 81.89055806 56.83036731 80.02727443 57.1875 78.1640625 C57.35419189 77.28908112 57.52088379 76.41409973 57.69262695 75.51260376 C57.92792114 74.29521011 57.92792114 74.29521011 58.16796875 73.05322266 C58.30485107 72.34090485 58.4417334 71.62858704 58.58276367 70.89468384 C59 69 59 69 60 66 C60.1441942 64.00346488 60.2205659 62.00151894 60.25 60 C60.27578125 58.948125 60.3015625 57.89625 60.328125 56.8125 C59.94829763 53.55683684 59.48104562 53.00255591 57 51 C50.74517525 48.62413987 43.87810873 48.66723548 37.27734375 48.5859375 C35.79821251 48.55688828 35.79821251 48.55688828 34.28919983 48.5272522 C31.17205165 48.46797336 28.05486549 48.42127961 24.9375 48.375 C22.8105317 48.33677256 20.6835781 48.29771813 18.55664062 48.2578125 C13.37121456 48.16231491 8.18571616 48.07809527 3 48 C2.8956665 49.18263428 2.79133301 50.36526855 2.68383789 51.58374023 C1.9270129 58.35953044 0.45680536 64.99373609 -0.94140625 71.66015625 C-1.23180152 73.05969376 -1.52182934 74.45930756 -1.81150818 75.85899353 C-2.56901 79.51422522 -3.33144696 83.16840984 -4.0949707 86.8223877 C-4.87558371 90.56260424 -5.65144982 94.30380502 -6.42773438 98.04492188 C-7.94721957 105.36424565 -9.47236631 112.68237171 -11 120 C-14.96 120 -18.92 120 -23 120 C-22.2421147 111.29908302 -20.50438817 102.80561765 -18.8125 94.25 C-18.49602973 92.63585207 -18.17970687 91.02167523 -17.86352539 89.4074707 C-15.71823588 78.4879818 -13.4857463 67.58824149 -11.20703125 56.69580078 C-8.8167581 45.2285612 -6.59898676 33.73065449 -4.39453125 22.2265625 C-2.9712606 14.80923085 -1.49136224 7.40389822 0 0 Z " fill="#38424F" transform="translate(227,156)"/>
</svg>
