<?xml version="1.0" encoding="UTF-8"?>
<svg version="1.1" xmlns="http://www.w3.org/2000/svg" width="512" height="256">
<path d="M0 0 C7.21791104 3.68864854 13.48718834 7.79706598 19.4765625 13.265625 C22.83685036 12.24735595 25.0596394 10.85541928 27.6015625 8.515625 C35.97767225 1.02121101 46.02929004 -3.43748243 57.23828125 -3.234375 C61.53401067 -2.57110194 63.74922091 -1.04587171 66.890625 1.85546875 C71.49125415 8.84706527 71.92934231 16.16383993 71.7890625 24.328125 C71.79228516 25.26978516 71.79550781 26.21144531 71.79882812 27.18164062 C71.75527106 32.871777 71.09009414 37.80790246 69.4765625 43.265625 C70.05921875 43.41257813 70.641875 43.55953125 71.2421875 43.7109375 C83.19668959 46.98150883 95.88441631 52.48033025 102.796875 63.33984375 C104.81111902 67.95808792 105.1308499 72.48863779 103.4765625 77.265625 C96.69518677 89.65917375 82.93951725 95.16714351 70.4765625 100.265625 C70.6209375 101.17183594 70.7653125 102.07804687 70.9140625 103.01171875 C72.89670022 116.02277882 74.38881137 129.78095607 66.4765625 141.265625 C62.69302597 145.14617529 59.38955417 145.57073487 54.1640625 145.765625 C41.08650108 145.30650336 30.69674268 136.7604238 20.4765625 129.265625 C19.66574219 129.92949219 18.85492188 130.59335938 18.01953125 131.27734375 C9.00162242 138.51932975 -0.40705983 145.33620289 -12.3984375 145.515625 C-13.94144531 145.55429687 -13.94144531 145.55429687 -15.515625 145.59375 C-20.35936853 145.06534162 -22.86651248 142.93782734 -26.2109375 139.515625 C-30.71425479 133.18663854 -30.85284676 126.97715249 -30.7734375 119.453125 C-30.76957031 118.57108398 -30.76570313 117.68904297 -30.76171875 116.78027344 C-30.68110149 110.71830324 -30.09092564 105.14370551 -28.5234375 99.265625 C-29.76673828 99.12833984 -29.76673828 99.12833984 -31.03515625 98.98828125 C-35.19036601 98.12745952 -38.56707909 96.60751305 -42.3359375 94.703125 C-43.03936279 94.34814941 -43.74278809 93.99317383 -44.4675293 93.62744141 C-51.38980663 90.007147 -57.00004398 85.78308263 -61.5859375 79.390625 C-63.37041762 73.44235794 -63.37076235 68.34863192 -61.0234375 62.578125 C-54.48706941 52.95388647 -42.7697214 46.63812912 -31.6484375 43.828125 C-30.6171875 43.6425 -29.5859375 43.456875 -28.5234375 43.265625 C-28.8534375 42.028125 -29.1834375 40.790625 -29.5234375 39.515625 C-30.6053267 34.0750455 -30.78288089 28.73121549 -30.8359375 23.203125 C-30.86204102 21.94580566 -30.86204102 21.94580566 -30.88867188 20.66308594 C-30.88288613 13.27179963 -29.79691175 6.26191065 -24.5234375 0.765625 C-17.43542577 -5.14105144 -7.93755204 -3.57819806 0 0 Z M-18.8359375 6.890625 C-22.39131238 11.89448594 -22.84277267 17.02968846 -22.7734375 23.015625 C-22.77859375 24.33046875 -22.78375 25.6453125 -22.7890625 27 C-22.62589498 31.86239213 -21.59277566 36.53276841 -20.5234375 41.265625 C-6.87888413 41.24347903 -6.87888413 41.24347903 4.80078125 35.5703125 C6.9817226 32.55624415 8.74359177 29.55229363 10.4765625 26.265625 C11.77547247 24.57199327 13.09895868 22.89588978 14.4765625 21.265625 C11.37439125 16.90560819 8.06230266 14.35780066 3.6015625 11.578125 C2.70244141 10.99321289 2.70244141 10.99321289 1.78515625 10.39648438 C-4.18585718 6.60793464 -12.28414034 2.28665943 -18.8359375 6.890625 Z M26.4765625 20.265625 C27.85928701 22.14068324 29.2554538 23.99702139 30.69140625 25.83203125 C32.4765625 28.265625 32.4765625 28.265625 33.91796875 30.91796875 C36.31152724 34.84571173 38.33310194 37.61473803 42.89013672 38.99853516 C49.02596315 40.25641743 55.23160107 40.8609217 61.4765625 41.265625 C63.12934801 35.47099852 63.81472069 30.27990388 63.7890625 24.265625 C63.80517578 23.51023437 63.82128906 22.75484375 63.83789062 21.9765625 C63.84264428 16.44331169 62.83017894 12.29255284 60.4765625 7.265625 C48.85144665 -0.48445224 34.87321407 12.82764625 26.4765625 20.265625 Z M19.4765625 27.265625 C17.66221542 29.24557982 17.66221542 29.24557982 15.8515625 31.703125 C15.21992187 32.52683594 14.58828125 33.35054687 13.9375 34.19921875 C12.38034766 35.97993393 12.38034766 35.97993393 12.4765625 37.265625 C17.7565625 37.265625 23.0365625 37.265625 28.4765625 37.265625 C26.43709905 33.18669809 24.51600941 30.6090166 21.4765625 27.265625 C20.8165625 27.265625 20.1565625 27.265625 19.4765625 27.265625 Z M0.40625 50.18457031 C-0.91125106 52.86495878 -1.98403969 55.54546833 -2.88232422 58.39355469 C-3.76111549 60.95965197 -5.16307555 63.07099536 -6.6484375 65.328125 C-8.18073994 67.77680438 -8.52791873 68.99023325 -8.48046875 71.90625 C-7.10924173 76.71953668 -4.65638576 80.68428653 -2.0859375 84.953125 C-1.58255859 85.80712891 -1.07917969 86.66113281 -0.56054688 87.54101562 C1.38745387 90.8342493 3.35370996 94.08134619 5.4765625 97.265625 C10.24289946 98.26960688 15.11576809 98.35086623 19.9765625 98.453125 C21.01283279 98.47507431 21.01283279 98.47507431 22.07003784 98.49746704 C30.26306057 98.63568981 30.26306057 98.63568981 37.78955078 95.859375 C41.181085 92.35148817 43.06490361 88.22286304 44.58837891 83.63061523 C45.4765625 81.265625 45.4765625 81.265625 46.98583984 78.65258789 C50.0368616 73.36684962 50.0368616 73.36684962 49.79907227 67.48754883 C48.37719781 64.59995131 46.7749765 61.99680157 44.9765625 59.328125 C44.40679687 58.40966797 43.83703125 57.49121094 43.25 56.54492188 C41.70641441 54.08056953 40.12677789 51.65965538 38.4765625 49.265625 C38.05262207 48.52973145 37.62868164 47.79383789 37.19189453 47.03564453 C33.65393587 43.38489015 27.75238053 44.21120353 22.94015503 44.10446167 C21.90630173 44.09142502 21.90630173 44.09142502 20.8515625 44.078125 C20.16160187 44.06693634 19.47164124 44.05574768 18.76077271 44.04421997 C8.17503471 43.85670609 8.17503471 43.85670609 0.40625 50.18457031 Z M-17.5234375 49.265625 C-17.07493092 51.08058162 -16.61434179 52.89255634 -16.1484375 54.703125 C-15.89320312 55.71246094 -15.63796875 56.72179687 -15.375 57.76171875 C-14.79769796 60.42132824 -14.79769796 60.42132824 -12.5234375 61.265625 C-10.2134375 56.645625 -7.9034375 52.025625 -5.5234375 47.265625 C-10.53976668 47.265625 -13.04591505 47.55990216 -17.5234375 49.265625 Z M46.4765625 47.265625 C46.89808594 48.03648438 47.31960937 48.80734375 47.75390625 49.6015625 C48.30175781 50.60445312 48.84960938 51.60734375 49.4140625 52.640625 C49.95933594 53.63835937 50.50460938 54.63609375 51.06640625 55.6640625 C51.8915384 57.18632846 52.70220641 58.71691283 53.4765625 60.265625 C54.1365625 60.265625 54.7965625 60.265625 55.4765625 60.265625 C56.0110881 59.02141853 56.52864861 57.76991564 57.0390625 56.515625 C57.47412109 55.47148438 57.47412109 55.47148438 57.91796875 54.40625 C58.73949946 51.95841536 58.73949946 51.95841536 57.4765625 48.265625 C53.8465625 47.935625 50.2165625 47.605625 46.4765625 47.265625 Z M-52.01953125 64.56640625 C-53.92330421 66.71742246 -54.4829038 68.0528231 -55.0234375 70.890625 C-54.23747905 76.19584456 -51.58914173 78.89115333 -47.5234375 82.265625 C-45.09170134 83.87859005 -42.5881789 85.31300929 -40.0234375 86.703125 C-39.39493896 87.04520996 -38.76644043 87.38729492 -38.11889648 87.73974609 C-33.89165189 89.90093658 -30.25134481 90.83304585 -25.5234375 91.265625 C-24.31177611 88.40022775 -23.13365366 85.52215615 -21.9609375 82.640625 C-21.61869141 81.83238281 -21.27644531 81.02414063 -20.92382812 80.19140625 C-17.6359124 72.02143384 -19.50279552 66.80235361 -22.5859375 58.890625 C-22.86759766 58.15457031 -23.14925781 57.41851562 -23.43945312 56.66015625 C-24.12910368 54.8600514 -24.82557682 53.0625629 -25.5234375 51.265625 C-34.89980284 51.265625 -45.53547937 58.30382104 -52.01953125 64.56640625 Z M67.4765625 51.265625 C66.70143703 53.0762936 65.93172063 54.88927791 65.1640625 56.703125 C64.73480469 57.71246094 64.30554688 58.72179687 63.86328125 59.76171875 C63.40566406 60.91800781 62.94804687 62.07429688 62.4765625 63.265625 C62.15598877 63.9469751 61.83541504 64.6283252 61.50512695 65.33032227 C59.59227658 69.86591081 59.19468354 72.62816269 60.93359375 77.30078125 C61.6894593 78.98997644 62.47540549 80.66599522 63.2890625 82.328125 C63.88170898 83.6265332 63.88170898 83.6265332 64.48632812 84.95117188 C65.45771818 87.06950441 66.45399583 89.17164599 67.4765625 91.265625 C78.16668347 88.43712539 86.63273518 84.20950114 94.4765625 76.265625 C95.98545719 73.24783563 95.97682526 71.64239863 95.4765625 68.265625 C90.99644623 59.79540518 81.02565007 55.60779407 72.4765625 52.265625 C69.66421383 51.53386255 69.66421383 51.53386255 67.4765625 51.265625 Z M-13.5234375 81.265625 C-14.19648768 82.86712386 -14.86165977 84.47193529 -15.5234375 86.078125 C-15.8946875 86.97144531 -16.2659375 87.86476563 -16.6484375 88.78515625 C-17.68976987 91.2987683 -17.68976987 91.2987683 -17.5234375 94.265625 C-13.2334375 94.925625 -8.9434375 95.585625 -4.5234375 96.265625 C-7.1634375 91.315625 -9.8034375 86.365625 -12.5234375 81.265625 C-12.8534375 81.265625 -13.1834375 81.265625 -13.5234375 81.265625 Z M54.4765625 81.265625 C53.04843053 83.36930488 51.68742892 85.47953052 50.3515625 87.640625 C49.96613281 88.24390625 49.58070313 88.8471875 49.18359375 89.46875 C48.21613309 91.02917041 47.33904779 92.6448193 46.4765625 94.265625 C46.8065625 94.925625 47.1365625 95.585625 47.4765625 96.265625 C49.2907552 95.98467918 51.10291251 95.69056067 52.9140625 95.390625 C53.92339844 95.22820312 54.93273437 95.06578125 55.97265625 94.8984375 C56.79894531 94.68960938 57.62523437 94.48078125 58.4765625 94.265625 C59.78563731 92.21794331 59.78563731 92.21794331 58.69921875 89.6640625 C58.31636719 88.66632813 57.93351562 87.66859375 57.5390625 86.640625 C57.15878906 85.63773437 56.77851563 84.63484375 56.38671875 83.6015625 C55.93619141 82.44527344 55.93619141 82.44527344 55.4765625 81.265625 C55.1465625 81.265625 54.8165625 81.265625 54.4765625 81.265625 Z M-20.5234375 102.265625 C-22.15979256 107.99286772 -22.76439751 113.44180008 -22.8359375 119.390625 C-22.85333984 120.05900391 -22.87074219 120.72738281 -22.88867188 121.41601562 C-22.88298507 127.18812085 -21.32904502 131.31963379 -18.3359375 136.203125 C-15.02036568 138.14673607 -12.15171888 138.03208566 -8.5234375 137.265625 C-0.00557244 133.86849999 7.5432331 129.30018948 14.4765625 123.265625 C13.20070323 119.63916787 11.76585696 117.1491394 9.1640625 114.328125 C7.007545 111.96807102 5.09464431 109.72318078 3.24609375 107.09765625 C-0.15791739 103.6168268 -2.87407108 103.19086084 -7.5234375 102.890625 C-8.22210938 102.82230469 -8.92078125 102.75398438 -9.640625 102.68359375 C-13.27215382 102.34784863 -16.87782803 102.19442169 -20.5234375 102.265625 Z M43.02294922 103.21044922 C36.12235376 106.06992895 30.73988777 113.70259403 27.4765625 120.265625 C27.12959417 123.32966705 27.12959417 123.32966705 29.2421875 125.09765625 C40.44914647 134.04600625 40.44914647 134.04600625 53.9765625 137.890625 C57.96102566 137.17911372 59.17177299 136.54551776 61.4765625 133.265625 C65.87540841 123.65333208 64.9288503 112.31857088 62.4765625 102.265625 C57.07734062 99.56601406 48.62069132 101.76165758 43.02294922 103.21044922 Z M12.4765625 105.265625 C14.6751016 108.92985683 16.77934264 112.01035966 19.4765625 115.265625 C22.92852017 113.8398164 24.5779881 112.16816166 26.7265625 109.140625 C28.0878125 107.2225 28.0878125 107.2225 29.4765625 105.265625 C23.8665625 105.265625 18.2565625 105.265625 12.4765625 105.265625 Z " fill="#00D8FF" transform="translate(90.5234375,56.734375)"/>
<path d="M0 0 C34 0 34 0 44 5 C49.7575507 12.02140329 49.84630864 19.21589996 49 28 C47.35571221 32.82963453 44.74894146 35.81192602 40.375 38.375 C39.26125 38.91125 38.1475 39.4475 37 40 C36.01 40.66 35.02 41.32 34 42 C34.4846875 42.71655762 34.969375 43.43311523 35.46875 44.17138672 C37.2615047 46.82647366 39.05011422 49.48429001 40.8359375 52.14404297 C41.61032184 53.29554988 42.38635802 54.44594769 43.1640625 55.59521484 C44.28036178 57.2454583 45.39027855 58.90001355 46.5 60.5546875 C47.1703125 61.54968262 47.840625 62.54467773 48.53125 63.56982422 C50 66 50 66 50 68 C46.13364524 68.7243579 42.84605922 68.91754261 39 68 C35.4712832 64.74010904 33.29319597 60.84272027 30.9375 56.6875 C30.28845703 55.61564453 29.63941406 54.54378906 28.97070312 53.43945312 C27.77220723 51.45440541 26.5899248 49.45941262 25.42944336 47.4519043 C24.34813098 45.59714423 23.19091062 43.78636593 22 42 C18.04 41.67 14.08 41.34 10 41 C10 49.91 10 58.82 10 68 C6.7 68 3.4 68 0 68 C0 45.56 0 23.12 0 0 Z M10 8 C10 16.25 10 24.5 10 33 C13.34125 33.0825 16.6825 33.165 20.125 33.25 C21.68758545 33.30462402 21.68758545 33.30462402 23.28173828 33.36035156 C29.20119448 33.43094327 32.51388295 32.96213857 37 29 C39.39367064 25.602532 40.25431351 23.02963561 40 18.9375 C39.24538827 14.69382328 37.46323275 12.61666475 34 10 C28.82529455 7.75216415 24.14949251 7.76135215 18.625 7.875 C15.77875 7.91625 12.9325 7.9575 10 8 Z " fill="#00D8FF" transform="translate(226,98)"/>
<path d="M0 0 C6.3531052 4.38102146 9.40874692 10.55767969 11 18 C11 20.64 11 23.28 11 26 C-1.87 26 -14.74 26 -28 26 C-25.32498906 34.92244515 -25.32498906 34.92244515 -19 40 C-14.03458632 41.65513789 -8.62171577 42.0073371 -3.671875 40.10546875 C-2.3247315 39.39946577 -0.99487427 38.65871355 0.30859375 37.875 C2 37 2 37 5 37 C6.6875 39.5 6.6875 39.5 8 42 C1.8366105 47.41631198 -3.78819865 49.56240846 -11.9375 49.4375 C-12.99408813 49.42396484 -12.99408813 49.42396484 -14.07202148 49.41015625 C-22.1922777 49.13926157 -26.40457034 46.94081321 -31.875 41.125 C-37.4190856 34.75574817 -37.44767918 27.81002477 -37.3046875 19.69921875 C-36.7188159 12.58613661 -34.43383742 8.05211505 -29.3125 3.125 C-20.5726365 -3.87663786 -10.05438298 -4.9649077 0 0 Z M-24 9 C-26.70067631 12.6374734 -28 15.35535552 -28 20 C-18.1 20 -8.2 20 2 20 C1.37867872 13.52096278 1.37867872 13.52096278 -1.875 9.125 C-2.38804687 8.55007812 -2.90109375 7.97515625 -3.4296875 7.3828125 C-6.88491119 4.34015283 -11.13820564 4.6631289 -15.49609375 4.7265625 C-19.28176552 5.13997439 -21.23065712 6.42846733 -24 9 Z " fill="#00D8FF" transform="translate(319,118)"/>
<path d="M0 0 C2.59363441 2.31024442 4.44075556 4.88151112 6 8 C6.08705146 10.98970289 6.11550145 13.95584955 6.09765625 16.9453125 C6.0962413 17.8303244 6.09482635 18.7153363 6.09336853 19.62716675 C6.0877614 22.45981191 6.07520771 25.29237864 6.0625 28.125 C6.05748592 30.04296761 6.05292285 31.96093646 6.04882812 33.87890625 C6.03778966 38.58596782 6.02052025 43.2929706 6 48 C3.36 48 0.72 48 -2 48 C-2.33 47.01 -2.66 46.02 -3 45 C-4.051875 45.66 -5.10375 46.32 -6.1875 47 C-12.35282631 50.07169282 -19.6765014 50.33608117 -26.25 48.3046875 C-30.50939966 46.11990923 -33.07505102 43.31188572 -35 39 C-35.77505223 32.50893754 -35.89240981 27.45313452 -32 22 C-27.64507306 17.88047451 -23.63055663 16.24816572 -17.6875 15.6875 C-12.40108475 16.13550129 -6.84426311 17.15573689 -3 21 C-2.61067733 13.99166975 -2.61067733 13.99166975 -6 8 C-10.23451239 5.43226376 -14.1742594 5.44705056 -19 6 C-22.79095117 7.47425879 -25.22645388 9.08777657 -28 12 C-28.66 12 -29.32 12 -30 12 C-31.75 9.75 -31.75 9.75 -33 7 C-32.33365963 3.85868112 -30.87209969 2.89646166 -28.375 0.875 C-19.49179005 -4.06011664 -9.15855234 -4.72755749 0 0 Z M-26 28 C-27.3309316 31.39969811 -27.3309316 31.39969811 -27 35 C-25.41639252 38.10856283 -23.99441971 40.21867023 -21.25 42.375 C-16.32919879 43.74188923 -12.35078833 43.53521802 -7.6875 41.6875 C-5.33435092 40.20994128 -3.73552685 39.12838249 -2 37 C-1.32274498 33.93542104 -1.39376628 31.07566283 -2 28 C-5.73648558 23.96055613 -9.43451393 22.839789 -14.8125 22.625 C-20.29581992 22.69714895 -22.493778 23.77455298 -26 28 Z " fill="#00D8FF" transform="translate(374,118)"/>
<path d="M0 0 C6.79437848 0.45295857 12.8441699 2.3441699 17.75 7.25 C18.245 8.735 18.245 8.735 18.75 10.25 C17 12.3125 17 12.3125 14.75 14.25 C11.3432701 14.14353969 9.36718392 12.27620691 6.75 10.25 C2.04477445 8.68159148 -1.77648816 8.70104461 -6.4375 10.4375 C-10.47593343 13.04004599 -12.73039779 15.69119336 -14.25 20.25 C-14.92725832 27.32251185 -15.27440342 33.8339186 -10.8671875 39.72265625 C-6.94206143 43.42971976 -2.90913415 44.27860576 2.375 44.1875 C6.12047985 43.14708893 8.59166473 41.47519076 11.75 39.25 C12.74 39.25 13.73 39.25 14.75 39.25 C16.9375 41.75 16.9375 41.75 18.75 44.25 C17.48427767 45.40147661 16.21222094 46.54599314 14.9375 47.6875 C14.22980469 48.32558594 13.52210938 48.96367187 12.79296875 49.62109375 C7.36865019 53.94602844 -0.67437382 52.72410471 -7.25 52.25 C-13.84903899 50.64372229 -18.58601425 45.81529727 -22.25 40.25 C-25.47383943 32.58133211 -25.72129872 22.54096891 -23.0625 14.625 C-19.40281928 7.81042211 -13.09010011 2.78466589 -5.6875 0.4375 C-3.79166667 0.29166667 -1.89583333 0.14583333 0 0 Z " fill="#00D8FF" transform="translate(416.25,114.75)"/>
<path d="M0 0 C4.39443074 4.06484844 5.68657624 6.77639573 5.9375 12.75 C5.78389948 17.71864281 4.96570672 20.57318485 1.5 24.3125 C-2.85061345 28.24876932 -6.41777006 28.95133919 -12.1015625 28.6953125 C-17.03524104 27.90785241 -19.63226355 25.27157713 -22.875 21.6875 C-25.0733091 17.12178111 -25.31834139 13.29546984 -24.5 8.3125 C-19.33591337 -1.48145741 -10.35370661 -4.99196569 0 0 Z " fill="#00D8FF" transform="translate(120.5,114.6875)"/>
<path d="M0 0 C2.64 0 5.28 0 8 0 C8 4.62 8 9.24 8 14 C11.3 14 14.6 14 18 14 C18 16.31 18 18.62 18 21 C14.7 21 11.4 21 8 21 C8.11851307 25.19940207 8.24277882 29.3985831 8.37231445 33.59765625 C8.41555318 35.02534388 8.45723585 36.45307954 8.49731445 37.88085938 C8.55528602 39.93634496 8.61890175 41.99159128 8.68359375 44.046875 C8.72025146 45.28276367 8.75690918 46.51865234 8.79467773 47.79199219 C8.95979819 50.37187658 9.2464387 52.54355106 10 55 C13.32534757 56.10844919 15.62182575 55.84454356 19 55 C19.66 56.98 20.32 58.96 21 61 C16.97732107 64.56835284 13.83822003 64.49826689 8.63671875 64.359375 C5.08851137 63.87576748 3.31666775 62.70277904 1 60 C-0.25282725 56.24151826 -0.12381835 52.74509081 -0.09765625 48.83203125 C-0.0962413 48.03721848 -0.09482635 47.2424057 -0.09336853 46.42350769 C-0.08777378 43.88646675 -0.07522228 41.34951425 -0.0625 38.8125 C-0.05748432 37.09179815 -0.05292153 35.37109492 -0.04882812 33.65039062 C-0.03780607 29.4335597 -0.02054506 25.21679484 0 21 C-2.64 21 -5.28 21 -8 21 C-8 18.69 -8 16.38 -8 14 C-5.36 14 -2.72 14 0 14 C0 9.38 0 4.76 0 0 Z " fill="#00D8FF" transform="translate(446,103)"/>
</svg>
