<?xml version="1.0" encoding="UTF-8"?>
<svg version="1.1" xmlns="http://www.w3.org/2000/svg" width="512" height="512">
<path d="M0 0 C1.09018149 -0.00424107 1.09018149 -0.00424107 2.20238686 -0.00856781 C6.06827763 -0.02344832 9.93413234 -0.03274115 13.80004883 -0.03710938 C16.90889573 -0.04143992 20.0174566 -0.05513387 23.1262207 -0.078125 C40.17153436 -0.20144156 57.0738868 0.08317476 74.0625 1.57421875 C74.76436117 1.63563301 75.46622234 1.69704727 76.18935204 1.76032257 C172.98276606 10.43288031 172.98276606 10.43288031 201.16015625 41.19921875 C206.92404483 48.37609943 208.78844608 55.4117234 208.6927948 64.44128418 C208.69535807 65.33833399 208.69792135 66.23538381 208.7005623 67.15961695 C208.70548031 70.14761326 208.68904003 73.13509758 208.67260742 76.12304688 C208.67176072 78.27198271 208.67223713 80.42091941 208.67393494 82.56985474 C208.67479463 88.39158574 208.65717282 94.2131308 208.63621306 100.03481865 C208.61744212 106.12334116 208.61569549 112.21186806 208.61213684 118.30041504 C208.60281763 129.82454543 208.57820543 141.34859029 208.54808837 152.87268305 C208.51454059 165.99473505 208.49805739 179.11679117 208.48300207 192.23887539 C208.45165584 219.22700598 208.39889766 246.21506069 208.33203125 273.203125 C209.4622168 273.18217773 210.59240234 273.16123047 211.75683594 273.13964844 C215.95364694 273.06719804 220.15040277 273.02130716 224.34765625 272.98339844 C226.16350605 272.96329439 227.9792912 272.93600665 229.79492188 272.90136719 C232.4064123 272.85279461 235.01704623 272.83014473 237.62890625 272.8125 C238.43946472 272.79185486 239.25002319 272.77120972 240.08514404 272.74993896 C243.70513354 272.74850083 245.85960195 272.85340461 248.81347656 275.04003906 C250.33203125 277.203125 250.33203125 277.203125 251.33203125 280.203125 C256.61203125 280.533125 261.89203125 280.863125 267.33203125 281.203125 C267.66203125 279.553125 267.99203125 277.903125 268.33203125 276.203125 C270.45671648 274.01096954 271.78999502 273.28795213 274.80926514 272.81544495 C276.19870331 272.80734047 276.19870331 272.80734047 277.61621094 272.79907227 C279.19870636 272.78004601 279.19870636 272.78004601 280.81317139 272.76063538 C281.94861389 272.76357101 283.0840564 272.76650665 284.25390625 272.76953125 C285.4278595 272.7642894 286.60181274 272.75904755 287.81134033 272.75364685 C290.29609385 272.74722286 292.78087776 272.74856847 295.265625 272.75708008 C299.05394267 272.76556211 302.84073863 272.73687625 306.62890625 272.70507812 C309.04557247 272.70346525 311.46224134 272.70404529 313.87890625 272.70703125 C315.00625183 272.69579727 316.13359741 272.68456329 317.29510498 272.67298889 C325.27746804 272.74312917 330.66349681 273.94802856 336.79296875 279.38671875 C337.74042969 280.50240234 337.74042969 280.50240234 338.70703125 281.640625 C339.35414063 282.38183594 340.00125 283.12304688 340.66796875 283.88671875 C344.25932065 288.88594803 344.62367748 293.43693198 344.59945679 299.45722961 C344.6039879 300.28481834 344.60851901 301.11240707 344.61318743 301.96507424 C344.62584072 304.73629452 344.62421046 307.5073185 344.62255859 310.27856445 C344.62854328 312.26629896 344.63534869 314.25403114 344.64291382 316.24176025 C344.66058753 321.6406019 344.66526979 327.03938015 344.66654539 332.43824792 C344.66844475 336.94613699 344.67580275 341.4540113 344.68288958 345.96189469 C344.6991765 356.59854612 344.70405827 367.2351637 344.70263672 377.87182617 C344.70143532 388.84122049 344.72253619 399.81041804 344.75412405 410.77976257 C344.78028323 420.19987739 344.79100416 429.61992795 344.7897259 439.04007882 C344.78921615 444.66523573 344.79490688 450.29021781 344.816082 455.91533852 C344.83545812 461.20708136 344.83559297 466.49848247 344.82104874 471.79023743 C344.81895875 473.73001797 344.82367283 475.66981987 344.83576965 477.60956383 C344.85124142 480.2627991 344.84190152 482.9148589 344.82650757 485.56806946 C344.83679469 486.33121863 344.84708182 487.09436781 344.85768068 487.88064271 C344.77253629 494.54562271 342.57061387 499.68021435 338.1484375 504.6640625 C337.03275391 505.61152344 337.03275391 505.61152344 335.89453125 506.578125 C335.15332031 507.22523438 334.41210938 507.87234375 333.6484375 508.5390625 C329.55542715 511.47940383 325.98879863 512.45255948 320.98142719 512.46318722 C319.91520329 512.47025281 318.84897938 512.4773184 317.75044566 512.4845981 C316.58509184 512.48218302 315.41973801 512.47976793 314.21907043 512.47727966 C312.9763705 512.48251634 311.73367056 512.48775302 310.45331305 512.49314839 C307.00637072 512.50555924 303.55963238 512.50899182 300.11268175 512.50855148 C296.3940516 512.51020034 292.67545854 512.5232682 288.95684814 512.53474426 C280.82656732 512.55758884 272.69631261 512.5655144 264.56600404 512.57057071 C259.48783813 512.57382858 254.4096798 512.58035164 249.33151817 512.5875721 C235.26711808 512.60713789 221.20272502 512.62354203 207.13831043 512.62644863 C206.23838023 512.6266362 205.33845002 512.62682377 204.4112492 512.62701702 C202.5869234 512.62738327 200.7625976 512.62774697 198.9382718 512.62810814 C197.5799027 512.62838235 197.5799027 512.62838235 196.1940918 512.62866211 C195.2874049 512.62884266 194.38071801 512.62902321 193.44655576 512.62920923 C178.75838207 512.63275009 164.07035506 512.65976701 149.38223223 512.69716 C134.29635224 512.73525771 119.210545 512.75460622 104.12461585 512.75490814 C95.65675788 512.75549241 87.18907487 512.76396444 78.72126198 512.79290581 C71.5100028 512.81743938 64.29898236 512.82468938 57.08769272 512.80965828 C53.41038551 512.80249716 49.73354954 512.80331152 46.05629539 512.82606888 C42.06382206 512.85053957 38.07241723 512.83600093 34.07991028 512.81785583 C32.92571006 512.8310558 31.77150984 512.84425577 30.58233386 512.85785574 C23.19299884 512.78125102 17.46736726 511.47401343 11.33203125 507.203125 C4.5963926 500.30061724 1.98985004 492.64144532 1.99214172 483.13085938 C2.00762558 482.14408203 2.02310944 481.15730469 2.0390625 480.140625 C2.04330734 479.10873047 2.04755219 478.07683594 2.05192566 477.01367188 C2.06861324 473.74321533 2.1062473 470.47339283 2.14453125 467.203125 C2.15959089 464.97526937 2.17327705 462.747404 2.18554688 460.51953125 C2.21848415 455.0805157 2.26858375 449.64186567 2.33203125 444.203125 C1.63544907 444.20910706 0.93886688 444.21508911 0.22117615 444.22125244 C-5.56967065 444.24976009 -11.29733553 444.13296473 -17.0703125 443.6875 C-17.82209274 443.63198471 -18.57387299 443.57646942 -19.34843445 443.51927185 C-21.76801504 443.33719969 -24.18678121 443.14668577 -26.60546875 442.953125 C-27.44188904 442.88654694 -28.27830933 442.81996887 -29.14007568 442.75137329 C-131.06857543 434.52296614 -131.06857543 434.52296614 -161.66796875 402.203125 C-165.71636133 396.79881146 -167.78938137 392.4126822 -167.80498314 385.58324337 C-167.81005768 384.40604951 -167.81513222 383.22885565 -167.82036054 382.01598924 C-167.8208583 380.71640844 -167.82135606 379.41682764 -167.8218689 378.0778656 C-167.82588342 376.68821959 -167.83032162 375.29857474 -167.83514845 373.90893131 C-167.84712123 370.08128439 -167.85276404 366.25365007 -167.85732961 362.42598808 C-167.86328312 358.30105821 -167.87489367 354.17614344 -167.88562012 350.05122375 C-167.91015112 340.08423217 -167.92477293 330.11723559 -167.93768018 320.15022311 C-167.94139181 317.33516976 -167.94536507 314.52011691 -167.94943285 311.70506406 C-167.97467065 294.22527097 -167.99672456 276.74547711 -168.009161 259.26566982 C-168.01209072 255.21609431 -168.01505237 251.16651881 -168.01806641 247.11694336 C-168.01918548 245.60718108 -168.01918548 245.60718108 -168.02032717 244.06691856 C-168.03297843 227.76523184 -168.06619785 211.46365425 -168.10786824 195.16201853 C-168.15029733 178.42639088 -168.17385722 161.69081908 -168.17908156 144.95513779 C-168.18249473 135.55833462 -168.19423866 126.16170193 -168.2271843 116.76495171 C-168.25519945 108.76131765 -168.26617775 100.75788903 -168.25498883 92.75420975 C-168.24980577 88.67187367 -168.25266558 84.5899677 -168.27745438 80.50769424 C-168.29998428 76.76611072 -168.29917877 73.02526531 -168.2802505 69.28366853 C-168.27613746 67.29789819 -168.29656868 65.31212313 -168.31803739 63.32646459 C-168.23702811 54.16614175 -166.16103016 47.85599195 -160.66796875 40.5390625 C-128.47540764 8.97526234 -72.42078372 4.8516802 -29.66796875 1.203125 C-28.65374344 1.11650604 -27.63951813 1.02988708 -26.59455872 0.94064331 C-17.72434034 0.24159419 -8.89491382 0.02404107 0 0 Z " fill="#373737" transform="translate(167.66796875,-0.203125)"/>
<path d="M0 0 C5.61 0 11.22 0 17 0 C17.99 1.98 18.98 3.96 20 6 C22.48454484 8.48454484 23.22206034 8.25030631 26.64575195 8.25537109 C27.61047928 8.26233002 28.5752066 8.26928894 29.56916809 8.27645874 C30.61497543 8.27546173 31.66078278 8.27446472 32.73828125 8.2734375 C34.94206234 8.29372997 37.14583834 8.31458082 39.34960938 8.3359375 C42.83231891 8.35853495 46.31482797 8.37500391 49.79760742 8.38085938 C53.15320321 8.39037812 56.50788907 8.42415532 59.86328125 8.4609375 C60.9030159 8.45589203 61.94275055 8.45084656 63.01399231 8.44564819 C70.25168131 8.54418734 70.25168131 8.54418734 74.13354492 10.90869141 C77.45292476 14.62795991 77.14835648 17.76462297 77.14717102 22.53388977 C77.15084771 23.3201964 77.1545244 24.10650302 77.1583125 24.91663712 C77.16937401 27.56593191 77.17319733 30.2151875 77.17700195 32.86450195 C77.1832647 34.7581393 77.18991133 36.65177541 77.19691467 38.54541016 C77.21434094 43.70041744 77.22488067 48.85541543 77.2331202 54.01044488 C77.23826645 57.22902797 77.24434233 60.44760815 77.25063133 63.66618919 C77.26968715 73.73034946 77.28391798 83.79450236 77.2922433 93.85867721 C77.30202097 105.48744727 77.32835273 117.11602724 77.36874419 128.74473029 C77.39887161 137.72566782 77.41370893 146.70655075 77.41702431 155.68753785 C77.41937848 161.05499996 77.4283866 166.42225909 77.45348549 171.78966713 C77.47671247 176.83840064 77.48102112 181.88679674 77.47072411 186.93556976 C77.47022734 188.78953611 77.47658911 190.64351876 77.49028015 192.49743462 C77.50791752 195.02708341 77.50093378 197.55551062 77.48774719 200.0851593 C77.49871644 200.82018388 77.50968568 201.55520845 77.52098733 202.3125065 C77.46009107 207.14550012 76.43511096 209.60866746 73 213 C70.53153931 214.23423034 68.90693892 214.12982813 66.1451292 214.13701439 C64.59715366 214.1446262 64.59715366 214.1446262 63.01790589 214.15239179 C61.87542148 214.15288955 60.73293706 214.15338731 59.55583191 214.15390015 C58.34891939 214.1582824 57.14200687 214.16266465 55.89852124 214.1671797 C52.53781548 214.17826175 49.17715637 214.18479753 45.81643903 214.18936086 C42.19602156 214.19531049 38.57562132 214.20692185 34.95521545 214.21765137 C26.20697711 214.24218888 17.45873306 214.25680389 8.71047089 214.26971143 C6.24065987 214.27342219 3.77084943 214.27739551 1.30103898 214.2814641 C-14.02797655 214.30669789 -29.35699295 214.32875641 -44.68602467 214.34119225 C-48.23770463 214.34412206 -51.78938456 214.34708371 -55.34106445 214.35009766 C-56.22384387 214.35084371 -57.10662329 214.35158976 -58.0161536 214.35235842 C-72.32313239 214.36501753 -86.62998706 214.39824735 -100.93690781 214.43989949 C-115.61698721 214.48228861 -130.29700301 214.50588372 -144.97714347 214.51111281 C-153.22300939 214.51453022 -161.46868129 214.52632417 -169.71448708 214.55921555 C-176.73564476 214.58717571 -183.75656867 214.59823323 -190.77777771 214.58702008 C-194.3612944 214.58182308 -197.94432123 214.58478658 -201.52776718 214.60948563 C-205.41033913 214.63602351 -209.29223837 214.6239531 -213.17488098 214.60800171 C-214.31067323 214.6218838 -215.44646548 214.63576588 -216.61667567 214.65006864 C-221.34711736 214.60197322 -224.15279419 214.5401544 -228.19938755 211.96016121 C-230.45483916 208.25225596 -230.69844005 205.24818321 -230.63491821 201.02941895 C-230.64271817 200.23238194 -230.65051812 199.43534493 -230.65855443 198.61415529 C-230.67848243 195.94607464 -230.66270743 193.2794191 -230.64697266 190.61132812 C-230.65374844 188.6975369 -230.66265135 186.7837522 -230.67352295 184.86997986 C-230.69632747 179.6736625 -230.68747508 174.47784121 -230.67162752 169.28151512 C-230.65897458 163.84525585 -230.67070696 158.40903925 -230.67855835 152.97277832 C-230.68765666 143.84326547 -230.67566216 134.71395481 -230.65185547 125.58447266 C-230.62464394 115.02733103 -230.63345797 104.4706722 -230.6609875 93.91354227 C-230.68367232 84.85182514 -230.68688169 75.79025341 -230.67379415 66.72851706 C-230.66599623 61.31527384 -230.66496753 55.9022576 -230.68147659 50.48902893 C-230.69591287 45.39990688 -230.6859148 40.31140769 -230.65700531 35.22235298 C-230.65039002 33.353893 -230.65229972 31.48538066 -230.66331863 29.61694145 C-230.67696858 27.06744545 -230.65986681 24.51994933 -230.63491821 21.97058105 C-230.64607182 21.22982094 -230.65722543 20.48906083 -230.66871703 19.72585344 C-230.5994194 16.07922319 -230.0593047 14.08857456 -228.01821804 11.04010868 C-223.91950058 8.26965639 -220.91719691 8.31028471 -216.07359314 8.38768005 C-215.17376176 8.38214664 -214.27393038 8.37661323 -213.34683138 8.37091213 C-210.33093486 8.35832946 -207.31635881 8.38132591 -204.30053711 8.40405273 C-202.1388265 8.40214909 -199.97711687 8.39799426 -197.81541443 8.39175415 C-193.16031137 8.38295779 -188.50558084 8.38972991 -183.85050774 8.40841484 C-176.49362947 8.43746351 -169.13707346 8.42972618 -161.78016663 8.41651917 C-147.49459705 8.39584333 -133.20918289 8.41146646 -118.92362213 8.43199158 C-100.73580446 8.45712533 -82.54807287 8.47004034 -64.36025244 8.44203526 C-57.04285538 8.43206151 -49.72584239 8.44225773 -42.4084872 8.46794307 C-37.86204619 8.48008721 -33.31572601 8.47592432 -28.76928139 8.46736526 C-26.65688471 8.46682876 -24.54447359 8.47320494 -22.43212128 8.48690605 C-19.55420366 8.50467051 -16.67734343 8.49806652 -13.79942322 8.4853363 C-12.95847656 8.49650732 -12.1175299 8.50767834 -11.2511 8.51918787 C-7.67444533 8.48039844 -5.46170583 8.33045318 -2.51253605 6.21966648 C-0.72161204 3.86642877 -0.72161204 3.86642877 0 0 Z " fill="#A9C6C7" transform="translate(418,281)"/>
<path d="M0 0 C3.06960617 1.21591462 6.05983391 2.47373454 9.01171875 3.953125 C26.79528906 12.72520384 44.58680799 18.0736304 64 22 C65.16249268 22.2371875 66.32498535 22.474375 67.52270508 22.71875 C77.56439325 24.69031045 87.63098464 26.09372523 97.7902832 27.30761719 C100.43216905 27.62436086 103.07250347 27.9522725 105.71289062 28.28125 C107.45304358 28.49285814 109.19327565 28.7038169 110.93359375 28.9140625 C111.69248398 29.00885895 112.45137421 29.1036554 113.23326111 29.20132446 C127.08834065 30.8313552 140.98362541 31.15472885 154.91796875 31.1328125 C156.47439082 31.13348938 158.03081278 31.13446257 159.5872345 31.13571167 C162.81654894 31.13716931 166.04583535 31.13509653 169.27514648 31.13037109 C173.37280845 31.12466049 177.47040507 31.12797367 181.56806469 31.13394356 C184.7709043 31.13758968 187.97372888 31.1363924 191.17656898 31.13381577 C192.68614014 31.1331584 194.19571276 31.13393217 195.70528221 31.13629532 C207.62655825 31.15087987 219.46867758 30.67836239 231.3046875 29.16796875 C232.53558105 29.01134766 233.76647461 28.85472656 235.03466797 28.69335938 C236.30197754 28.52642578 237.56928711 28.35949219 238.875 28.1875 C239.54098206 28.10040771 240.20696411 28.01331543 240.89312744 27.92358398 C253.64624311 26.25052204 266.35651168 24.37307804 279 22 C280.11375 21.79238037 280.11375 21.79238037 281.25 21.58056641 C299.86587261 17.98155559 318.43966314 11.52411043 335.12109375 2.53125 C338 1 338 1 341 0 C341.1624486 11.20500643 341.28670017 22.4097311 341.3626852 33.61567688 C341.39916141 38.81956686 341.4486088 44.02264909 341.52807617 49.22607422 C341.60433678 54.25117894 341.64603249 59.27550857 341.6641407 64.30114746 C341.67703893 66.21492714 341.70222728 68.12866609 341.7401104 70.04211426 C342.06094679 86.92428503 342.06094679 86.92428503 337.60595703 92.12060547 C335.73953247 93.76266479 335.73953247 93.76266479 334 95 C333.21496094 95.62132812 332.42992187 96.24265625 331.62109375 96.8828125 C302.49023064 113.45457363 268.88046069 119.24904321 236 123 C234.75492676 123.15098145 233.50985352 123.30196289 232.22705078 123.45751953 C174.12348902 130.29193163 109.68300851 129.49693187 53 114 C51.99670654 113.73799805 51.99670654 113.73799805 50.97314453 113.47070312 C34.04264948 109.03380025 11.46421957 102.99871472 1 88 C-0.59231101 84.81537798 -0.12929857 81.37489467 -0.11352539 77.87841797 C-0.11367142 77.03931885 -0.11381744 76.20021973 -0.1139679 75.33569336 C-0.11326968 72.55449869 -0.10548155 69.77337051 -0.09765625 66.9921875 C-0.09579175 65.06690508 -0.094368 63.14162218 -0.09336853 61.21633911 C-0.08954591 56.1429921 -0.07971779 51.06967361 -0.06866455 45.99633789 C-0.05844495 40.82178127 -0.05386973 35.64722005 -0.04882812 30.47265625 C-0.03809531 20.31509162 -0.02102193 10.15754818 0 0 Z " fill="#3C4A88" transform="translate(17,87)"/>
<path d="M0 0 C1.50348999 0.81295532 1.50348999 0.81295532 3.03735352 1.64233398 C4.38029849 2.36455559 5.72332018 3.08663457 7.06640625 3.80859375 C7.72370728 4.16449585 8.3810083 4.52039795 9.05822754 4.88708496 C37.70796546 20.25688896 71.086202 25.33905967 103 29 C104.6163031 29.19142578 104.6163031 29.19142578 106.26525879 29.38671875 C127.06602532 31.80907125 147.5857285 32.44340323 168.51141357 32.3225708 C171.67485123 32.30909198 174.83814955 32.31442616 178.00160313 32.31942368 C201.96667143 32.34821466 225.59570196 31.30381513 249.3125 27.625 C250.77204039 27.40428801 252.23159468 27.18366787 253.69116211 26.96313477 C263.80996116 25.41678164 273.87695389 23.6837088 283.87207031 21.46630859 C285.99120046 21.00192831 288.1152208 20.57139824 290.2421875 20.14453125 C306.0661245 16.84680662 321.10282725 10.86433913 335.3828125 3.34765625 C338 2 338 2 341 1 C341 25.75 341 50.5 341 76 C322.94796875 76.03867187 322.94796875 76.03867187 304.53125 76.078125 C296.91144201 76.10328848 289.29165936 76.12945436 281.671875 76.16015625 C269.57487152 76.20871108 257.47795235 76.25314893 245.38085938 76.27099609 C236.57056513 76.284013 227.76044219 76.31097872 218.95024443 76.35461307 C214.28636425 76.37722695 209.62269536 76.39291072 204.95875549 76.39188385 C200.56574234 76.3911372 196.17319624 76.40909003 191.78030396 76.44116783 C190.17112865 76.449662 188.56190093 76.45142002 186.95271301 76.44580269 C175.39654033 76.39459791 175.39654033 76.39459791 165 81 C164.0925 81.598125 163.185 82.19625 162.25 82.8125 C156.20254193 88.69197312 154.91778464 95.00864956 154.68359375 103.171875 C154.6524221 104.1955014 154.6524221 104.1955014 154.62062073 105.23980713 C154.55547948 107.40977356 154.49640596 109.57985624 154.4375 111.75 C154.39428103 113.22527221 154.35066568 114.70053287 154.30664062 116.17578125 C154.19983482 119.78373166 154.09846847 123.39181133 154 127 C151.66666667 127.02083333 149.33333333 127.04166667 147 127.0625 C145.0509375 127.07990234 145.0509375 127.07990234 143.0625 127.09765625 C129.74643338 126.9614341 116.56489538 125.51945454 103.375 123.8125 C102.1124086 123.65018387 102.1124086 123.65018387 100.8243103 123.48458862 C22.61249473 113.3307869 22.61249473 113.3307869 2.4375 91.1875 C-0.29743682 87.02563963 -0.13519607 83.64677069 -0.11352539 78.78662109 C-0.11367142 77.9377684 -0.11381744 77.08891571 -0.1139679 76.21434021 C-0.11326966 73.40068023 -0.1054814 70.58708596 -0.09765625 67.7734375 C-0.09579175 65.82573482 -0.094368 63.87803168 -0.09336853 61.93032837 C-0.08954583 56.79779776 -0.07971765 51.66529533 -0.06866455 46.53277588 C-0.05844512 41.29789613 -0.05386977 36.06301184 -0.04882812 30.828125 C-0.03809517 20.55207093 -0.0210217 10.27603781 0 0 Z " fill="#5562AE" transform="translate(17,197)"/>
<path d="M0 0 C0.97484344 0.00027191 1.94968689 0.00054382 2.95407104 0.00082397 C20.11078509 0.02266275 37.09142023 0.66663198 54.1875 2.1875 C55.92942627 2.33227783 55.92942627 2.33227783 57.70654297 2.47998047 C83.28757674 4.64822675 108.854328 8.81918212 133.1875 17.1875 C133.89358398 17.42436523 134.59966797 17.66123047 135.32714844 17.90527344 C165.04490154 27.96762458 165.04490154 27.96762458 171.1875 39.1875 C172.0625 42.6875 172.0625 42.6875 171.1875 46.1875 C167.08044392 52.85496763 161.00636812 56.66710803 154.1875 60.1875 C153.37796875 60.60644531 152.5684375 61.02539062 151.734375 61.45703125 C112.89247795 80.2226717 64.927093 85.39035286 22.39453125 85.3203125 C20.91306035 85.32098931 19.43158955 85.32196244 17.95011902 85.32321167 C14.86509124 85.32467324 11.7800927 85.32258587 8.69506836 85.31787109 C4.80002104 85.31219909 0.90504231 85.31555442 -2.99000263 85.32129002 C-25.08502459 85.34931744 -46.81555547 84.86983484 -68.75 82 C-69.58646057 81.89212158 -70.42292114 81.78424316 -71.284729 81.6730957 C-86.65970564 79.67173589 -101.75914982 76.94889735 -116.8125 73.1875 C-117.64313965 72.98157227 -118.4737793 72.77564453 -119.32958984 72.56347656 C-135.49025815 68.45233936 -159.5277384 62.04311856 -168.8125 47.1875 C-170.05768456 43.08571556 -170.22277027 41.12526063 -168.5 37.1875 C-148.40924563 11.59893784 -96.64498563 7.15201507 -67.01513672 3.55761719 C-44.71787628 0.98080313 -22.43844229 -0.02383713 0 0 Z " fill="#5562AE" transform="translate(186.8125,16.8125)"/>
<path d="M0 0 C3.10256903 1.22921618 6.12783881 2.50432141 9.1171875 3.98828125 C38.55363341 18.41291643 70.47820093 24.53143972 102.875 28.125 C103.94226822 28.24587982 103.94226822 28.24587982 105.03109741 28.36920166 C121.32624028 30.19065139 137.61241414 30.97577588 154 32 C154 60.05 154 88.1 154 117 C108.70080525 117 38.11724275 115.44218667 2.9375 82.25 C-0.44384754 78.32327383 -0.13845239 74.50828119 -0.11352539 69.59106445 C-0.11367142 68.83960144 -0.11381744 68.08813843 -0.1139679 67.31390381 C-0.11327129 64.83033358 -0.10549067 62.34683837 -0.09765625 59.86328125 C-0.09579118 58.14121034 -0.09436769 56.41913889 -0.09336853 54.69706726 C-0.0895504 50.16460709 -0.07972611 45.63217896 -0.06866455 41.09973145 C-0.05843531 36.47469516 -0.05386766 31.84965371 -0.04882812 27.22460938 C-0.03810323 18.1497255 -0.02103523 9.07486542 0 0 Z " fill="#3C4A88" transform="translate(17,309)"/>
<path d="M0 0 C8.20430802 5.88544334 14.32222312 12.86653647 16 23 C16.0993351 25.11830691 16.14809341 27.23926864 16.16113281 29.35986328 C16.17074036 30.6253299 16.1803479 31.89079651 16.19024658 33.1946106 C16.19509693 34.56984271 16.19937517 35.94507694 16.203125 37.3203125 C16.20736607 38.3685148 16.20736607 38.3685148 16.21169281 39.43789291 C16.22665498 43.13991418 16.23590173 46.84189682 16.24023438 50.54394531 C16.24569809 54.339713 16.26968974 58.13511819 16.29820633 61.93077278 C16.31697555 64.87359596 16.32204595 67.81633455 16.32357025 70.75921249 C16.32656794 72.1568486 16.33449698 73.55448427 16.34775543 74.9520607 C16.41612059 82.71593422 16.06416361 89.40789069 13.35174561 96.73458862 C12.72423748 99.09449765 12.72423748 99.09449765 14.38800049 101.08547974 C14.91996033 101.71727142 15.45192017 102.34906311 16 103 C16.63940864 107.39593437 16.51187502 109.27096589 13.9375 112.9375 C10.28847911 115.4995785 8.37238596 115.64776088 4 115 C3.52820313 114.47921875 3.05640625 113.9584375 2.5703125 113.421875 C2.05210937 112.95265625 1.53390625 112.4834375 1 112 C-1.21357993 112.0350146 -1.21357993 112.0350146 -3.5 112.75 C-4.66015625 113.05164063 -4.66015625 113.05164063 -5.84375 113.359375 C-7.57271201 113.87305212 -9.28890198 114.42963399 -11 115 C-21.51641668 116.02948813 -29.01803587 114.99274358 -38 109 C-40.875 106.625 -40.875 106.625 -43 104 C-43.50015625 103.41476562 -44.0003125 102.82953125 -44.515625 102.2265625 C-51.87195277 93.19184927 -52.45257146 84.30580297 -52.3984375 72.91015625 C-52.4004639 71.55691878 -52.40338003 70.20368238 -52.40713501 68.85044861 C-52.41153333 66.02722683 -52.4052097 63.2042917 -52.39111328 60.38110352 C-52.37403898 56.78930051 -52.38386672 53.19817113 -52.40183067 49.60639286 C-52.41275071 46.8154151 -52.40918462 44.02459299 -52.4014473 41.23361015 C-52.39851445 39.27406749 -52.40751631 37.31451841 -52.4168396 35.35499573 C-52.31894852 22.81404278 -49.93235128 14.15172949 -41.1484375 5.08984375 C-29.77903913 -5.5774603 -13.89839485 -7.86941078 0 0 Z " fill="#383939" transform="translate(359,337)"/>
<path d="M0 0 C9.26218506 5.32780557 14.06132529 12.61566069 17.6484375 22.5234375 C18.71794042 28.09719311 18.70152056 31.8959455 15.5859375 36.7109375 C11.8588998 39.01059906 9.95596613 39.29263904 5.6484375 38.5234375 C2.54750193 36.45614712 0.98694252 34.82754979 0.0390625 31.17578125 C-0.26478283 29.439148 -0.55895176 27.70079583 -0.84375 25.9609375 C-1.58765824 22.39017793 -2.91851308 20.21951929 -5.3515625 17.5234375 C-10.50048247 14.49466104 -15.49210726 13.458082 -21.3515625 14.5234375 C-25.65960765 16.27662457 -28.57739666 18.48315215 -31.3515625 22.2109375 C-33.03932249 27.80164246 -33.50506793 33.21642664 -30.8515625 38.5234375 C-30.3565625 39.1834375 -29.8615625 39.8434375 -29.3515625 40.5234375 C-29.3515625 41.1834375 -29.3515625 41.8434375 -29.3515625 42.5234375 C-28.7740625 42.8121875 -28.1965625 43.1009375 -27.6015625 43.3984375 C-26.25511616 44.07166067 -24.9225323 44.77580821 -23.625 45.5390625 C-20.66875273 46.81908709 -17.92619645 47.05080543 -14.7265625 47.3984375 C-5.24917448 48.67783568 3.18829391 51.11559558 9.6484375 58.5234375 C16.1989017 67.67593366 18.77371332 76.2706793 17.6484375 87.5234375 C15.46729798 96.84285181 11.14230777 104.31012155 3.2734375 109.8359375 C1.74963179 110.76182607 0.20849384 111.66002701 -1.3515625 112.5234375 C-2.25648438 113.03583984 -2.25648438 113.03583984 -3.1796875 113.55859375 C-10.29431921 116.88391075 -19.55915694 116.75636742 -27.0390625 114.83203125 C-29.30048165 113.89369934 -31.28289768 112.83060563 -33.3515625 111.5234375 C-34.39570313 110.88728516 -34.39570313 110.88728516 -35.4609375 110.23828125 C-43.40327368 104.87869725 -48.38605915 96.86763374 -50.3515625 87.5234375 C-51.07400336 82.61083964 -51.11433759 79.65604293 -48.2890625 75.4609375 C-44.56928612 73.00746797 -42.7282036 72.74189445 -38.3515625 73.5234375 C-35.25062693 75.59072788 -33.69006752 77.21932521 -32.7421875 80.87109375 C-32.43837954 82.60751338 -32.14552236 84.34588223 -31.86328125 86.0859375 C-30.8596606 90.86654271 -28.59974694 93.65261115 -24.6640625 96.3984375 C-18.86138974 98.36915655 -13.71244689 98.4120086 -8.0390625 95.9609375 C-3.98190565 93.63677779 -1.71511726 91.01464599 -0.3515625 86.5234375 C0.4164136 81.4755946 0.26045586 77.74747421 -2.0390625 73.1484375 C-7.09357247 67.41088564 -10.73491695 65.93874149 -18.1015625 65.0859375 C-25.0808517 64.09988562 -30.5958547 62.81124667 -36.3515625 58.5234375 C-37.4034375 57.8015625 -38.4553125 57.0796875 -39.5390625 56.3359375 C-46.97621618 48.89878382 -50.30149146 40.3515293 -50.9140625 29.9609375 C-50.76757251 20.80043001 -47.33138681 13.16788456 -41.38671875 6.23046875 C-29.84319748 -4.49014804 -14.16061697 -6.87150582 0 0 Z " fill="#383939" transform="translate(272.3515625,336.4765625)"/>
<path d="M0 0 C2.75329021 1.79562405 4.52627461 3.05254922 6 6 C6.09350611 9.02088464 6.12572242 12.01858122 6.11352539 15.03955078 C6.11367142 15.97618561 6.11381744 16.91282043 6.1139679 17.87783813 C6.11326944 20.98368622 6.10548015 24.08947485 6.09765625 27.1953125 C6.09579183 29.34479744 6.09436804 31.4942828 6.09336853 33.64376831 C6.08954522 39.30895149 6.07971651 44.97410915 6.06866455 50.63928223 C6.05844644 56.41707006 6.05387005 62.194862 6.04882812 67.97265625 C6.03809409 79.3151154 6.02101989 90.65755558 6 102 C7.30670654 101.98428955 8.61341309 101.9685791 9.9597168 101.95239258 C14.81447164 101.8980328 19.66919964 101.86362774 24.52416992 101.83520508 C26.62415086 101.82013228 28.7241004 101.79967059 30.82397461 101.77368164 C33.84496824 101.73723246 36.86554511 101.72025841 39.88671875 101.70703125 C40.82335861 101.69154739 41.75999847 101.67606354 42.72502136 101.66011047 C47.61930841 101.658851 51.0800304 101.71679136 55 105 C57 108 57 108 56.875 111.4375 C55.90129952 115.40185194 55.15822088 116.52389737 52 119 C49.30603027 119.50793457 49.30603027 119.50793457 46.19335938 119.51757812 C44.44134216 119.53649109 44.44134216 119.53649109 42.65393066 119.55578613 C41.39657104 119.54768921 40.13921143 119.53959229 38.84375 119.53125 C37.54932983 119.5350769 36.25490967 119.53890381 34.92126465 119.54284668 C32.18413154 119.54873687 29.44752141 119.54019539 26.71044922 119.52148438 C23.20627974 119.49869369 19.70333566 119.51181954 16.19921112 119.53577423 C12.85145979 119.55372454 9.50403613 119.5411476 6.15625 119.53125 C4.27021057 119.54339539 4.27021057 119.54339539 2.34606934 119.55578613 C1.17805786 119.54317749 0.01004639 119.53056885 -1.19335938 119.51757812 C-2.22054077 119.51439575 -3.24772217 119.51121338 -4.30603027 119.50793457 C-7 119 -7 119 -9.33056641 117.62890625 C-11.99170495 113.43833301 -11.55629284 109.28389194 -11.51757812 104.41992188 C-11.5245874 103.34311661 -11.53159668 102.26631134 -11.53881836 101.15687561 C-11.55643792 97.59390553 -11.54476087 94.0317283 -11.53125 90.46875 C-11.53394376 87.99540046 -11.5378252 85.52205196 -11.54284668 83.04870605 C-11.54874713 77.86358565 -11.54016077 72.67874075 -11.52148438 67.49365234 C-11.49869476 60.84183044 -11.51181468 54.19092312 -11.53577423 47.53908539 C-11.55021714 42.43132652 -11.54563303 37.3237211 -11.53526306 32.21595764 C-11.53259163 29.76310653 -11.53588008 27.31024155 -11.54518127 24.85740662 C-11.55532158 21.43125416 -11.53987956 18.00615219 -11.51757812 14.58007812 C-11.52567505 13.56281143 -11.53377197 12.54554474 -11.54211426 11.49745178 C-11.45957612 4.66502569 -11.45957612 4.66502569 -9.18249512 1.36999512 C-5.93752049 -0.66693929 -3.75248626 -0.52666474 0 0 Z " fill="#393939" transform="translate(404,333)"/>
<path d="M0 0 C5.03235675 2.34150933 8.24947088 5.24112927 10.76953125 10.28125 C10.86081418 12.22169277 10.88705373 14.1653256 10.88305664 16.10791016 C10.88298111 17.32902496 10.88290558 18.55013977 10.88282776 19.80825806 C10.87772077 21.14560995 10.87250477 22.48296143 10.8671875 23.8203125 C10.86532265 25.18508859 10.86389906 26.54986534 10.86289978 27.91464233 C10.85907988 31.50840093 10.84925408 35.10211917 10.8381958 38.69586182 C10.82797036 42.36233982 10.82339973 46.02882435 10.81835938 49.6953125 C10.80763135 56.89064341 10.79056124 64.08594105 10.76953125 71.28125 C9.83367187 70.79527344 8.8978125 70.30929687 7.93359375 69.80859375 C4.74555081 68.26967426 3.2205851 67.64552955 -0.23046875 68.28125 C-2.70769868 69.67404682 -2.70769868 69.67404682 -4.23046875 72.28125 C-4.98909638 76.85174734 -4.48909383 80.23379386 -2.23046875 84.28125 C-8.50895225 84.78352868 -12.20090906 84.49204416 -17.23046875 80.28125 C-21.18728259 76.87399364 -23.00249109 73.73050529 -23.49116516 68.48048401 C-23.49577255 67.46155563 -23.50037994 66.44262726 -23.50512695 65.39282227 C-23.51465897 64.23134171 -23.52419098 63.06986115 -23.53401184 61.8731842 C-23.53310043 60.62725998 -23.53218903 59.38133575 -23.53125 58.09765625 C-23.53553513 56.80939438 -23.53982025 55.52113251 -23.54423523 54.1938324 C-23.55168081 51.47122066 -23.55141827 48.74873864 -23.54614258 46.02612305 C-23.54034939 42.54817899 -23.55728262 39.07076774 -23.58048725 35.59291172 C-23.5988164 32.26113809 -23.59503832 28.92947996 -23.59375 25.59765625 C-23.60756462 23.73180626 -23.60756462 23.73180626 -23.62165833 21.82826233 C-23.58460783 14.900719 -23.44519001 9.69644385 -18.4765625 4.41796875 C-17.87972656 3.93972656 -17.28289062 3.46148437 -16.66796875 2.96875 C-16.06855469 2.47761719 -15.46914063 1.98648437 -14.8515625 1.48046875 C-10.46570891 -1.76400607 -5.09039545 -1.64033759 0 0 Z " fill="#A8C5C6" transform="translate(347.23046875,350.71875)"/>
</svg>
