<?xml version="1.0" encoding="UTF-8"?>
<svg version="1.1" xmlns="http://www.w3.org/2000/svg" width="240" height="240">
<path d="M0 0 C59.4 0 118.8 0 180 0 C180 59.4 180 118.8 180 180 C120.6 180 61.2 180 0 180 C0 120.6 0 61.2 0 0 Z " fill="#1976D2" transform="translate(30,30)"/>
<path d="M0 0 C1.34964844 -0.01836914 1.34964844 -0.01836914 2.7265625 -0.03710938 C9.03650489 -0.05070839 14.72283057 0.78017734 20.875 2.1875 C20.875 8.1275 20.875 14.0675 20.875 20.1875 C12.125 17.3125 12.125 17.3125 9.875 16.1875 C7.40321126 16.06304225 4.97188831 16.0023408 2.5 16 C1.82710937 15.98775391 1.15421875 15.97550781 0.4609375 15.96289062 C-3.22107187 15.95201855 -6.07722544 16.01361341 -9.125 18.1875 C-11.49858694 21.74788041 -11.86459381 22.99646839 -11.125 27.1875 C-6.09342304 33.01467238 1.05195476 36.0522603 7.84765625 39.31054688 C14.64663151 42.71003451 20.56419335 46.84623545 23.8125 53.9375 C26.32960031 62.02036249 25.52524722 70.6050759 21.875 78.1875 C17.85056117 84.52903998 11.78109645 87.88470464 4.55078125 89.8046875 C-7.98856049 91.59863712 -19.0841397 89.65873901 -31.125 86.1875 C-31.125 79.9175 -31.125 73.6475 -31.125 67.1875 C-26.125 69.1875 -26.125 69.1875 -23.72265625 70.2578125 C-16.26728118 73.35943233 -9.15952961 74.36603432 -1.125 73.1875 C2.71915449 70.76710643 3.56256741 69.55084223 4.5625 65.1875 C3.62224637 61.08457506 1.17634565 59.51310601 -2.125 57.1875 C-5.06797609 55.41060878 -8.08553119 53.79250003 -11.125 52.1875 C-21.60103031 46.65560281 -27.84686298 41.6987759 -32.125 30.1875 C-33.6077887 22.58067343 -31.12335313 15.33642008 -27.0625 8.9375 C-19.89937902 1.09737673 -9.91421554 0.00692333 0 0 Z " fill="#FAFCFE" transform="translate(175.125,109.8125)"/>
<path d="M0 0 C21.78 0 43.56 0 66 0 C66 5.28 66 10.56 66 16 C58.41 16 50.82 16 43 16 C43 40.42 43 64.84 43 90 C36.73 90 30.46 90 24 90 C24 65.58 24 41.16 24 16 C16.08 16 8.16 16 0 16 C0 10.72 0 5.44 0 0 Z " fill="#FDFDFE" transform="translate(71,110)"/>
</svg>
